G04 EAGLE Gerber RS-274X export*
G75*
%MOMM*%
%FSLAX34Y34*%
%LPD*%
%INGBS*%
%IPPOS*%
%AMOC8*
5,1,8,0,0,1.08239X$1,22.5*%
G01*
%ADD10C,2.209800*%
%ADD11C,1.358800*%
%ADD12C,1.650800*%
%ADD13R,1.930400X1.930400*%
%ADD14C,1.930400*%
%ADD15C,1.828800*%
%ADD16C,1.574800*%
%ADD17C,2.184400*%
%ADD18C,1.473200*%
%ADD19R,1.574800X1.574800*%
%ADD20C,1.574800*%
%ADD21C,2.527300*%
%ADD22C,3.606800*%
%ADD23R,0.685800X1.320800*%
%ADD24C,2.300800*%
%ADD25C,0.700800*%
%ADD26C,5.850800*%
%ADD27C,1.158800*%
%ADD28C,1.050800*%


D10*
X-91840Y-298180D03*
X-91840Y-423180D03*
X-141840Y-298180D03*
X-141840Y-423180D03*
D11*
X-49340Y-360680D03*
X-184340Y-360680D03*
D12*
X-71840Y-360680D03*
X-161840Y-360680D03*
D13*
X-368300Y-461010D03*
D14*
X-393700Y-461010D03*
X-419100Y-461010D03*
D13*
X-284480Y-461010D03*
D14*
X-309880Y-461010D03*
X-335280Y-461010D03*
D13*
X-200660Y-461010D03*
D14*
X-226060Y-461010D03*
X-251460Y-461010D03*
D13*
X-116840Y-461010D03*
D14*
X-142240Y-461010D03*
X-167640Y-461010D03*
D13*
X-33020Y-461010D03*
D14*
X-58420Y-461010D03*
X-83820Y-461010D03*
D13*
X50800Y-461010D03*
D14*
X25400Y-461010D03*
X0Y-461010D03*
X167640Y-264160D03*
X142240Y-264160D03*
X116840Y-264160D03*
X91440Y-264160D03*
X167640Y-289560D03*
X142240Y-289560D03*
X116840Y-289560D03*
X91440Y-289560D03*
X73660Y-27940D03*
X91621Y-45901D03*
X109581Y-63861D03*
X127000Y-45720D03*
X109039Y-27759D03*
X91079Y-9799D03*
X-25400Y-419100D03*
X0Y-419100D03*
X25400Y-419100D03*
X-129540Y-347980D03*
X-104140Y-347980D03*
X-129540Y-373380D03*
X-104140Y-373380D03*
X-482600Y271780D03*
X-482600Y246380D03*
X-482600Y220980D03*
X-482600Y195580D03*
X-482600Y170180D03*
X-482600Y144780D03*
X-482600Y119380D03*
X-482600Y93980D03*
D15*
X-408940Y457200D02*
X-408940Y474980D01*
X-383540Y474980D02*
X-383540Y457200D01*
X-358140Y457200D02*
X-358140Y474980D01*
X-332740Y474980D02*
X-332740Y457200D01*
X-223520Y457200D02*
X-223520Y474980D01*
X-198120Y474980D02*
X-198120Y457200D01*
X-172720Y457200D02*
X-172720Y474980D01*
X-147320Y474980D02*
X-147320Y457200D01*
X-38100Y457200D02*
X-38100Y474980D01*
X-12700Y474980D02*
X-12700Y457200D01*
X12700Y457200D02*
X12700Y474980D01*
X38100Y474980D02*
X38100Y457200D01*
X147320Y457200D02*
X147320Y474980D01*
X172720Y474980D02*
X172720Y457200D01*
X198120Y457200D02*
X198120Y474980D01*
X223520Y474980D02*
X223520Y457200D01*
D16*
X250190Y-358140D02*
X250190Y-373380D01*
X224790Y-373380D02*
X224790Y-358140D01*
X199390Y-358140D02*
X199390Y-373380D01*
X146050Y-373380D02*
X146050Y-358140D01*
X120650Y-358140D02*
X120650Y-373380D01*
X95250Y-373380D02*
X95250Y-358140D01*
D17*
X457200Y-259360D02*
X478536Y-259360D01*
X478536Y-294360D02*
X457200Y-294360D01*
X457200Y-171730D02*
X478536Y-171730D01*
X478536Y-206730D02*
X457200Y-206730D01*
D18*
X472440Y-421640D02*
X486664Y-421640D01*
X447040Y-428752D02*
X447040Y-414528D01*
X396240Y-414528D02*
X396240Y-428752D01*
X421640Y-428752D02*
X421640Y-414528D01*
X396240Y-439928D02*
X396240Y-454152D01*
X421640Y-454152D02*
X421640Y-439928D01*
D14*
X-279400Y68580D03*
X-254000Y68580D03*
X-228600Y68580D03*
X-228600Y93980D03*
X-254000Y93980D03*
X-279400Y93980D03*
D19*
X-327660Y-130810D03*
D20*
X-302260Y-143510D03*
X-327660Y-156210D03*
X-302260Y-168910D03*
X-327660Y-181610D03*
X-302260Y-194310D03*
X-327660Y-207010D03*
X-302260Y-219710D03*
D21*
X-361950Y-95250D03*
X-361950Y-255270D03*
D20*
X-440690Y-241300D03*
X-440690Y-215900D03*
X-440690Y-109220D03*
X-440690Y-134620D03*
D22*
X-391160Y-118110D03*
X-391160Y-232410D03*
D14*
X66040Y-264160D03*
X66040Y-289560D03*
X66040Y-314960D03*
X-408940Y198120D03*
X-383540Y198120D03*
X-358140Y198120D03*
X-332740Y198120D03*
X-223520Y198120D03*
X-198120Y198120D03*
X-172720Y198120D03*
X-147320Y198120D03*
X-38100Y198120D03*
X-12700Y198120D03*
X12700Y198120D03*
X38100Y198120D03*
X147320Y198120D03*
X172720Y198120D03*
X198120Y198120D03*
X223520Y198120D03*
X154940Y-205740D03*
X154940Y-180340D03*
X154940Y-154940D03*
X154940Y-129540D03*
D23*
X-402590Y-431800D03*
X-393700Y-431800D03*
X-384810Y-431800D03*
D24*
X96520Y-434340D02*
X96520Y-456840D01*
X147320Y-456840D02*
X147320Y-434340D01*
D15*
X332740Y457200D02*
X332740Y474980D01*
X358140Y474980D02*
X358140Y457200D01*
X383540Y457200D02*
X383540Y474980D01*
X408940Y474980D02*
X408940Y457200D01*
D14*
X332740Y198120D03*
X358140Y198120D03*
X383540Y198120D03*
X408940Y198120D03*
D17*
X457200Y-84100D02*
X478536Y-84100D01*
X478536Y-119100D02*
X457200Y-119100D01*
D16*
X375920Y27940D02*
X360680Y27940D01*
X360680Y2540D02*
X375920Y2540D01*
X375920Y-22860D02*
X360680Y-22860D01*
D14*
X-170180Y-279400D03*
X-195580Y-279400D03*
X-220980Y-279400D03*
X-246380Y-279400D03*
X-271780Y-279400D03*
X262890Y-104140D03*
X262890Y-129540D03*
X262890Y-154940D03*
X262890Y-180340D03*
X262890Y-205740D03*
X-12700Y25400D03*
X12700Y25400D03*
X38100Y25400D03*
X63500Y25400D03*
D23*
X-349250Y-431800D03*
X-358140Y-431800D03*
X-367030Y-431800D03*
X115570Y-203200D03*
X124460Y-203200D03*
X133350Y-203200D03*
D14*
X63500Y50800D03*
X38100Y50800D03*
X12700Y50800D03*
X-12700Y50800D03*
D24*
X436880Y-22860D02*
X459380Y-22860D01*
X459380Y27940D02*
X436880Y27940D01*
D14*
X-457200Y297180D03*
X-482600Y297180D03*
D25*
X-436090Y-286060D03*
X-436090Y-343860D03*
D26*
X-467360Y469900D03*
D27*
X-467360Y491900D03*
X-467360Y447900D03*
X-489360Y469900D03*
X-445360Y469900D03*
X-451860Y485400D03*
X-451860Y454400D03*
X-482860Y485400D03*
X-482860Y454400D03*
D26*
X467360Y-464820D03*
D27*
X467360Y-442820D03*
X467360Y-486820D03*
X445360Y-464820D03*
X489360Y-464820D03*
X482860Y-449320D03*
X482860Y-480320D03*
X451860Y-449320D03*
X451860Y-480320D03*
D26*
X467360Y469900D03*
D27*
X467360Y491900D03*
X467360Y447900D03*
X445360Y469900D03*
X489360Y469900D03*
X482860Y485400D03*
X482860Y454400D03*
X451860Y485400D03*
X451860Y454400D03*
D26*
X-467360Y-464820D03*
D27*
X-467360Y-442820D03*
X-467360Y-486820D03*
X-489360Y-464820D03*
X-445360Y-464820D03*
X-451860Y-449320D03*
X-451860Y-480320D03*
X-482860Y-449320D03*
X-482860Y-480320D03*
D24*
X436880Y97790D02*
X459380Y97790D01*
X459380Y148590D02*
X436880Y148590D01*
X198120Y-434340D02*
X198120Y-456840D01*
X248920Y-456840D02*
X248920Y-434340D01*
D17*
X457200Y-346990D02*
X478536Y-346990D01*
X478536Y-381990D02*
X457200Y-381990D01*
D24*
X299720Y-434340D02*
X299720Y-456840D01*
X350520Y-456840D02*
X350520Y-434340D01*
D14*
X-368300Y-397510D03*
X-393700Y-397510D03*
X-419100Y-397510D03*
X-444500Y-397510D03*
X186690Y-78740D03*
X212090Y-78740D03*
X237490Y-78740D03*
D28*
X-71120Y-259080D03*
M02*
