M48
;GenerationSoftware,Autodesk,EAGLE,9.6.2*%
;CreationDate,2020-12-17T12:43:54Z*%
FMAT,2
ICI,OFF
METRIC,TZ,000.000
T13C0.600
T12C0.650
T11C0.800
T10C0.813
T9C0.914
T8C1.016
T7C1.200
T6C1.422
T5C1.500
T4C1.600
T3C1.651
T2C3.100
T1C3.556
%
G90
M71
T1
X-39116Y-11811
X-39116Y-23241
T2
X46736Y-46482
X-46736Y46990
X46736Y46990
X-46736Y-46482
T3
X-36195Y-9525
X-36195Y-25527
T4
X-7184Y-36068
X-16184Y-36068
T5
X43688Y2794
X43688Y-2286
X14732Y-43434
X9652Y-43434
X43688Y9779
X43688Y14859
X19812Y-43434
X24892Y-43434
X29972Y-43434
X35052Y-43434
T6
X45720Y-25936
X45720Y-29436
X45720Y-17173
X45720Y-20673
X45720Y-11910
X45720Y-8410
X45720Y-34699
X45720Y-38199
T7
X-9184Y-29818
X-9184Y-42318
X-14184Y-29818
X-14184Y-42318
T8
X-25146Y-46101
X-11684Y-46101
X-14224Y-46101
X-16764Y-46101
X-3302Y-46101
X-5842Y-46101
X-8382Y-46101
X5080Y-46101
X2540Y-46101
X0Y-46101
X16764Y-26416
X14224Y-26416
X11684Y-26416
X9144Y-26416
X16764Y-28956
X14224Y-28956
X11684Y-28956
X9144Y-28956
X7366Y-2794
X9162Y-4590
X10958Y-6386
X12700Y-4572
X10904Y-2776
X9108Y-980
X-2540Y-41910
X0Y-41910
X2540Y-41910
X-12954Y-34798
X-10414Y-34798
X-12954Y-37338
X-10414Y-37338
X-48260Y27178
X-48260Y24638
X-48260Y22098
X-48260Y19558
X-48260Y17018
X-48260Y14478
X-48260Y11938
X-48260Y9398
X-40894Y46609
X-38354Y46609
X-35814Y46609
X-33274Y46609
X-22352Y46609
X-19812Y46609
X-17272Y46609
X-14732Y46609
X-3810Y46609
X-1270Y46609
X1270Y46609
X3810Y46609
X14732Y46609
X17272Y46609
X19812Y46609
X22352Y46609
X25019Y-36576
X22479Y-36576
X19939Y-36576
X14605Y-36576
X12065Y-36576
X9525Y-36576
X-27940Y6858
X-25400Y6858
X-22860Y6858
X-25400Y9398
X-27940Y9398
X6604Y-26416
X6604Y-28956
X6604Y-31496
X-40894Y19812
X-38354Y19812
X-35814Y19812
X-33274Y19812
X-22352Y19812
X-19812Y19812
X-17272Y19812
X-14732Y19812
X-3810Y19812
X-1270Y19812
X1270Y19812
X3810Y19812
X14732Y19812
X17272Y19812
X19812Y19812
X22352Y19812
X15494Y-20574
X15494Y-18034
X15494Y-15494
X15494Y-12954
X33274Y46609
X35814Y46609
X38354Y46609
X40894Y46609
X33274Y19812
X35814Y19812
X38354Y19812
X40894Y19812
X36830Y2794
X36830Y254
X36830Y-2286
X-17018Y-27940
X-19558Y-27940
X-22098Y-27940
X-24638Y-27940
X-27178Y-27940
X26289Y-10414
X26289Y-12954
X26289Y-15494
X26289Y-18034
X26289Y-20574
X-1270Y2540
X1270Y2540
X3810Y2540
X6350Y2540
X6350Y5080
X3810Y5080
X1270Y5080
X-1270Y5080
X-45720Y29718
X-48260Y29718
X23749Y-7874
X-22860Y9398
X-36830Y-46101
X-39370Y-46101
X-41910Y-46101
X-28448Y-46101
X-30988Y-46101
X-33528Y-46101
X-20066Y-46101
X-22606Y-46101
X-36830Y-39751
X-39370Y-39751
X-41910Y-39751
X-44450Y-39751
X18669Y-7874
X21209Y-7874
T9
X42164Y-44704
X42164Y-42164
X39624Y-42164
X39624Y-44704
X44704Y-42164
X47244Y-42164
T10
X-32766Y-20701
X-30226Y-21971
X-44069Y-24130
X-44069Y-21590
X-44069Y-10922
X-44069Y-13462
X-32766Y-13081
X-30226Y-14351
X-32766Y-15621
X-30226Y-16891
X-32766Y-18161
X-30226Y-19431
T11
X-18434Y-36068
X-4934Y-36068
T12
X-43609Y-34386
X-43609Y-28606
T13
X17145Y-34925
X17145Y-36195
X34925Y-3810
X36322Y-3810
X34925Y-5334
X36322Y-5334
X37719Y-3810
X37719Y-5334
X-8128Y11811
X-7620Y9144
X44196Y16637
X45466Y16637
X45466Y13081
X46736Y16637
X44196Y13081
X42926Y13081
X42926Y16637
X46736Y13081
X47752Y15621
X47752Y14097
X45212Y14859
X46355Y14859
X-3810Y21590
X762Y21590
X14732Y21590
X17780Y21590
X33274Y21590
X36322Y21590
X-22225Y-6096
X8001Y9144
X-31242Y-11938
X-19177Y-3048
X-31750Y21590
X5334Y21590
X-45466Y-29210
X-45466Y-33782
X42418Y21590
X23876Y21590
X-13208Y21590
X-41021Y-36068
X-41021Y-28194
X-28194Y-31242
X-36195Y-28829
X9017Y-8128
X13081Y10795
X11303Y10795
X13081Y13843
X11303Y13843
X34925Y-33909
X32766Y-33909
X-20066Y-11557
X-18288Y-11557
X-16510Y-11557
X-18288Y-9779
X-38608Y32004
X-38608Y30480
X-37084Y32004
X-37084Y30480
X-35560Y32004
X-35560Y30480
X-20066Y32004
X-20066Y30480
X-18542Y32004
X-18542Y30480
X-17018Y32004
X-17018Y30480
X-1524Y32004
X-1524Y30480
X0Y32004
X0Y30480
X1524Y32004
X1524Y30480
X17018Y32004
X17018Y30480
X18542Y32004
X18542Y30480
X20066Y32004
X20066Y30480
X35560Y32004
X35560Y30480
X37084Y32004
X37084Y30480
X38608Y32004
X38608Y30480
X-21082Y0
X6731Y-37846
X6731Y-36576
X6731Y-35306
X7366Y-40259
X17145Y-37465
X34925Y-6858
X36322Y-6858
X37719Y-6858
X31750Y-43942
X31750Y-45212
X28194Y-45212
X31750Y-46482
X28194Y-43942
X28194Y-42672
X31750Y-42672
X28194Y-46482
X29972Y-44958
X29972Y-46101
X30734Y-41656
X29210Y-41656
X31750Y-48514
X28194Y-48514
X30734Y-47498
X29210Y-47498
X29972Y-48514
X36576Y15875
X35306Y15875
X34036Y15875
X-43942Y-17526
X-46990Y-17526
X-46990Y-14478
X-46990Y-20574
X-46990Y-23622
X-46990Y-11430
X-40894Y-17526
X-37846Y-17526
X-34798Y-17526
X-34798Y-20574
X-34798Y-14478
X-31750Y-23622
X-46482Y4064
X-46482Y1778
X-46482Y-508
X-34798Y-4826
X-37846Y-4826
X-40894Y-4826
X-43942Y-4826
X-46990Y-4826
X-39370Y-2794
X-36322Y-2794
X-39370Y3683
X-36322Y3683
X-31750Y7874
X-45466Y-6858
X-42418Y-6858
X-39370Y-6858
X-36322Y-6858
X-48768Y-29210
X-48768Y-33782
X-46990Y32512
X-46990Y37084
X-46990Y41656
X13716Y6350
X13716Y4826
X46355Y-32893
X45085Y-32893
X36322Y-31242
X37592Y-31242
X36322Y-29972
X-14732Y-11557
X-9144Y-27559
X-127Y-25121
X-5207Y-22606
X27813Y16637
X16510Y7874
X13716Y7874
X15113Y7112
X17780Y7112
X-14351Y-1905
X-48768Y2921
X-48768Y635
X-48768Y-1651
X-42418Y-2794
X-46482Y-2794
X-42418Y3683
X-40894Y4826
X-37973Y4826
X-48768Y-12954
X-48768Y-16002
X-48768Y-19050
X-48768Y-22098
X-30734Y-1016
X-17399Y10266
X-20828Y21590
X-34798Y-41402
X-41910Y-42418
X-24638Y-32766
X-13462Y-23876
X-39370Y21590
X-35560Y21590
X-16256Y21590
X-2286Y-8890
X-6858Y-11176
X-4445Y-21336
X6223Y-14605
X13462Y-22606
X-2286Y21590
X2286Y21590
X16256Y21590
X20828Y21590
X34798Y21590
X39370Y21590
X-27924Y14224
X-12192Y13462
X-7112Y-28194
X5461Y11938
X-28956Y4572
X-17399Y-270
X-12065Y5969
X7747Y6350
X15621Y-8636
X4064Y-24130
X7245Y-11563
X-2413Y-28194
X-32258Y6096
X762Y-4826
X-11684Y-23876
X-15240Y-23876
X-2286Y8128
X-41402Y7620
X-8509Y-19050
X0Y-37592
X-2540Y-18415
X-12700Y0
X-22606Y4318
X-12700Y1524
X-23876Y4318
X-21082Y5588
X-10541Y-762
X-9144Y-4445
X-12446Y-3810
X-8001Y-5334
X-12446Y-5334
X-9144Y-3175
X-17391Y1143
X-3810Y-9906
X-19177Y3048
X-8382Y-1016
X-13335Y5969
X-17907Y-29972
X508Y-19812
X-18796Y-30861
X127Y-22860
X-32258Y-6858
X-40386Y-508
X-29972Y9652
X-30734Y4318
X-6969Y3048
X-8636Y3556
X-30734Y-6858
X-41402Y-1524
X-6985Y1016
X10922Y-10160
X-42672Y35052
X-11176Y3556
X-23876Y12827
X-31496Y35433
X-25273Y12827
X-9906Y3556
X-33274Y26162
X-29210Y14224
X381Y-1524
X-14732Y26162
X2794Y-1270
X3810Y26162
X12954Y35052
X4572Y-10922
X24130Y35306
X4572Y-12192
X762Y-6096
X22352Y26162
X-2540Y-13208
X-42183Y12427
X-43180Y15748
X-4318Y-13716
X-39878Y12446
X-4826Y-11938
X-12192Y-11663
X-8128Y-12446
X-36195Y-35052
X-26670Y-23876
X-33041Y-31893
X-19812Y5588
X-6985Y-19050
X4318Y-31242
X8382Y-12192
X508Y-17505
X2794Y-17780
X-32639Y9144
X-6350Y-12700
X3302Y-10922
X3302Y-8128
X16510Y-31115
X23114Y-30480
X6534Y-4756
X-26416Y-35306
X7366Y-20066
X-34290Y-39624
X6350Y-19304
X-29464Y-35327
X11684Y-11049
X3556Y-14224
X-24130Y35052
X5207Y-13462
X-19177Y11938
X-12954Y35306
X6350Y-12446
X-17780Y11938
X-5588Y35052
X4572Y-8636
X5588Y35306
X3302Y-9525
X11938Y-18669
X-27940Y-43434
X-18542Y-39751
X-23114Y-43434
X12884Y-17202
X12065Y-16256
X-18542Y-38481
X762Y-10160
X1778Y-11938
X18542Y-24384
X8636Y-20066
X-23114Y-35322
X10668Y-12954
X5969Y9144
X31496Y30480
X11811Y-13335
X4572Y9652
X762Y13208
X-762Y-16002
X28194Y-11684
X1397Y-23622
X-1143Y-14097
X23114Y-26162
X-2540Y-14732
X-3810Y-15748
X13589Y-6858
X-42418Y21590
X-30226Y36322
X-30226Y34417
X-27178Y36322
X-27178Y34417
X-21463Y37592
X-16383Y36830
X-15621Y37592
X-20701Y36830
X-40005Y37592
X-34925Y36830
X-34163Y37592
X-39243Y36830
X-23876Y21590
X-11684Y36322
X-11684Y34417
X-8636Y36322
X-8636Y34417
X-2921Y37592
X2159Y36830
X2921Y37592
X-2159Y36830
X6858Y36322
X6858Y34417
X9906Y36322
X9906Y34417
X15621Y37592
X20701Y36830
X21463Y37592
X16383Y36830
X25400Y36322
X25400Y34417
X28448Y36322
X28448Y34417
X34163Y37592
X39243Y36830
X40005Y37592
X34925Y36830
X43942Y36322
X43942Y34417
X46990Y36322
X46990Y34417
X33909Y11303
X33909Y12573
X32639Y12573
X32639Y11303
X31369Y11303
X31369Y12573
X30099Y12573
X30099Y11303
X32639Y10033
X30099Y8763
X31369Y8763
X32639Y8763
X32639Y7493
X33909Y7493
X33909Y8763
X33909Y10033
X-5334Y21590
X13208Y21590
X31750Y21590
X15494Y-9906
X44196Y4572
X45466Y4572
X46736Y4572
X42926Y4572
X45212Y2794
X46355Y2794
X41910Y3556
X47752Y3556
X47752Y2032
X-26416Y18161
X-8566Y9836
X-4572Y9652
X5842Y18288
X4445Y17272
X-4572Y11684
X-35814Y47752
X-33274Y47752
X-38354Y47752
X-40894Y47752
X-37338Y26416
X-30480Y17780
X-18288Y17399
X-18796Y26416
X-254Y26416
X18288Y26416
X36830Y26416
X-38608Y26162
X-32004Y17526
X-20066Y26162
X-19685Y17399
X-1524Y26162
X17018Y26162
X35560Y26162
X-17272Y47752
X-14732Y47752
X-19812Y47752
X-22352Y47752
X1270Y47752
X3810Y47752
X-1270Y47752
X-3810Y47752
X22352Y47752
X17272Y47752
X14732Y47752
X-24384Y-4318
X-24384Y-3048
X-24892Y762
X-29210Y-10414
X-25781Y1651
X-24892Y-1016
X-28448Y-12192
X-25654Y-127
X-28448Y-15621
X-17255Y-20777
X13208Y-14986
X21590Y-43942
X21590Y-45212
X18034Y-45212
X21590Y-46482
X18034Y-43942
X18034Y-42672
X21590Y-42672
X18034Y-46482
X19812Y-44958
X19812Y-46101
X11430Y-43942
X11430Y-45212
X7874Y-45212
X11430Y-46482
X7874Y-43942
X7874Y-42672
X11430Y-42672
X7874Y-46482
X9652Y-44958
X9652Y-46101
X36830Y-43942
X36830Y-45212
X33274Y-45212
X36830Y-46482
X36830Y-48514
X33274Y-43942
X33274Y-42672
X36830Y-42672
X33274Y-46482
X35814Y-47498
X34290Y-47498
X33274Y-48514
X35052Y-44958
X35052Y-46101
X35814Y-41656
X34290Y-41656
X35052Y-48514
X23114Y-43942
X23114Y-45212
X23114Y-46482
X23114Y-42672
X24892Y-44958
X24892Y-46101
X26670Y-43942
X26670Y-45212
X26670Y-46482
X26670Y-42672
X12954Y-43942
X12954Y-45212
X12954Y-46482
X12954Y-42672
X14732Y-44958
X14732Y-46101
X16510Y-43942
X16510Y-45212
X16510Y-46482
X16510Y-42672
X38227Y11684
X38227Y10414
X36957Y11684
X36957Y12954
X36957Y14224
X35687Y11684
X35687Y10414
X36957Y10414
X35687Y12954
X35687Y14224
X39497Y12954
X39497Y11684
X39497Y10414
X38227Y12954
X38227Y14224
X39497Y14224
X44196Y11557
X45466Y11557
X45466Y8001
X46736Y11557
X44196Y8001
X42926Y8001
X42926Y11557
X46736Y8001
X45212Y9779
X46355Y9779
X47752Y10541
X47752Y9017
X19812Y47752
X28194Y-30670
X23114Y-28448
X-26416Y-18796
X-24130Y2413
X-28956Y-2310
X16510Y-32766
X26416Y-33147
X-6223Y-20066
X-39878Y7620
X46101Y-36703
X47371Y-36703
X46736Y-40005
X48641Y-36703
X44831Y-36703
X48006Y-40005
X47117Y-38227
X48260Y-38227
X38354Y47752
X40894Y47752
X35814Y47752
X33274Y47752
X31496Y35052
X-889Y-1524
X16383Y17653
X5588Y-3810
X10668Y2413
X40894Y26162
X42672Y35306
X12700Y-12446
X30480Y19304
X8001Y11811
X44323Y-508
X43053Y762
X43053Y-5334
X44323Y762
X44323Y-4064
X43053Y-4064
X43053Y-508
X44323Y-5334
X23114Y-23622
X27940Y-8255
X-38608Y-31496
X-34360Y-38297
X-20066Y-43434
X-32766Y-35306
X-27940Y-35306
X-25654Y-43434
X-20828Y-35306
X14732Y-22606
X2286Y14224
X-34798Y26416
X-16256Y26416
X-14732Y17018
X2286Y26416
X20828Y26416
X39370Y26416
X-25146Y18161
X-47244Y-31496
X14986Y1397
X13716Y1397
X30480Y-3810
X13716Y127
X14986Y127
X-21082Y-19812
X-26035Y19812
X-31750Y26416
X-13208Y26416
X-7493Y19812
X5334Y26416
X10922Y19812
X29464Y20320
X23876Y26416
X23622Y-5334
X23114Y12319
X-33020Y-30607
X-36195Y-36322
X-32766Y-43434
X-30734Y-35306
X-24892Y-35306
X-17780Y21590
X-40894Y21590
X-37846Y21590
X-30226Y40386
X-30226Y42164
X-27178Y40386
X-27178Y42164
X-40132Y32004
X-40132Y30480
X-41402Y31242
X-41402Y29718
X-42672Y30480
X-42672Y28956
X-42672Y33528
X-41402Y32766
X-42672Y32004
X-24638Y37846
X-22098Y43942
X-14986Y43942
X-21082Y43942
X-16002Y43942
X-43180Y37846
X-40640Y43942
X-33528Y43942
X-39624Y43942
X-34544Y43942
X-34036Y30480
X-34036Y32004
X-32766Y31242
X-32766Y32766
X-31496Y32004
X-31496Y33528
X-31496Y28956
X-32766Y29718
X-31496Y30480
X-21590Y32004
X-21590Y30480
X-22860Y31242
X-22860Y29718
X-24130Y30480
X-24130Y28956
X-24130Y33528
X-22860Y32766
X-24130Y32004
X-15494Y30480
X-15494Y32004
X-14224Y31242
X-14224Y32766
X-12954Y32004
X-12954Y33528
X-12954Y28956
X-14224Y29718
X-12954Y30480
X-22352Y21590
X-11684Y40386
X-11684Y42164
X-8636Y40386
X-8636Y42164
X-6096Y37846
X-3556Y43942
X3556Y43942
X-2540Y43942
X2540Y43942
X-3048Y32004
X-3048Y30480
X-4318Y31242
X-4318Y29718
X-5588Y30480
X-5588Y28956
X-5588Y33528
X-4318Y32766
X-5588Y32004
X3048Y30480
X3048Y32004
X4318Y31242
X4318Y32766
X5588Y32004
X5588Y33528
X5588Y28956
X4318Y29718
X5588Y30480
X6858Y40386
X6858Y42164
X9906Y40386
X9906Y42164
X12446Y37846
X14986Y43942
X22098Y43942
X16002Y43942
X-762Y13208
X21082Y43942
X15494Y32004
X15494Y30480
X14224Y31242
X14224Y29718
X12954Y30480
X12954Y28956
X12954Y33528
X14224Y32766
X12954Y32004
X21590Y30480
X21590Y32004
X22860Y31242
X22860Y32766
X24130Y32004
X24130Y33528
X24130Y28956
X22860Y29718
X24130Y30480
X25400Y40386
X25400Y42164
X28448Y40386
X28448Y42164
X30988Y37846
X33528Y43942
X40640Y43942
X34544Y43942
X39624Y43942
X34036Y32004
X34036Y30480
X32766Y31242
X32766Y29718
X31496Y28956
X31496Y33528
X32766Y32766
X31496Y32004
X40132Y30480
X40132Y32004
X41402Y31242
X41402Y32766
X42672Y32004
X42672Y33528
X42672Y28956
X41402Y29718
X42672Y30480
X43942Y40386
X43942Y42164
X46990Y40386
X46990Y42164
X-2286Y-7366
X-11176Y-9398
X-28956Y2032
X-23114Y-11557
X-25400Y-17526
X5334Y-15494
X28956Y2667
X28956Y4191
X30226Y3429
X30226Y4953
X31496Y4191
X30226Y1905
X31496Y2667
X26670Y1905
X26670Y2921
X25654Y2921
X25654Y1905
X24638Y2921
X24638Y1905
X32512Y-31242
X33782Y-29972
X31242Y-31242
X35052Y-29972
X33782Y-21209
X35052Y-21209
X32512Y-22479
X31242Y-22479
X32512Y-13716
X-46736Y49190
X-46736Y44790
X-48936Y46990
X-44536Y46990
X-45186Y48540
X-45186Y45440
X-48286Y48540
X-48286Y45440
X31242Y-13716
X46736Y-44282
X46736Y-48682
X44536Y-46482
X48936Y-46482
X48286Y-44932
X48286Y-48032
X45186Y-44932
X45186Y-48032
X33782Y-12446
X46736Y49190
X46736Y44790
X44536Y46990
X48936Y46990
X48286Y48540
X48286Y45440
X45186Y48540
X45186Y45440
X35052Y-12446
X-46736Y-44282
X-46736Y-48682
X-48936Y-46482
X-44536Y-46482
X-45186Y-44932
X-45186Y-48032
X-48286Y-44932
X-48286Y-48032
X33782Y-13716
X35052Y-13716
X33782Y-22479
X35052Y-22479
X33782Y-31242
X35052Y-31242
X8001Y-37846
X6731Y-39116
X8001Y-36576
X8001Y-39116
X8001Y-35306
X18415Y-34925
X18415Y-36195
X18415Y-37465
X32893Y4445
M30