G04 EAGLE Gerber RS-274X export*
G75*
%MOMM*%
%FSLAX34Y34*%
%LPD*%
%INGBS*%
%IPPOS*%
%AMOC8*
5,1,8,0,0,1.08239X$1,22.5*%
G01*
%ADD10C,2.209800*%
%ADD11C,1.358800*%
%ADD12C,1.650800*%
%ADD13R,1.930400X1.930400*%
%ADD14C,1.930400*%
%ADD15C,1.828800*%
%ADD16C,1.574800*%
%ADD17C,2.184400*%
%ADD18C,1.473200*%
%ADD19R,1.574800X1.574800*%
%ADD20C,1.574800*%
%ADD21C,2.527300*%
%ADD22C,3.606800*%
%ADD23R,0.685800X1.320800*%
%ADD24C,2.300800*%
%ADD25C,5.850800*%
%ADD26C,1.158800*%
%ADD27C,1.050800*%
%ADD28C,0.700800*%

G36*
X-424836Y-277806D02*
X-424836Y-277806D01*
X-424833Y-277809D01*
X-423711Y-277654D01*
X-423706Y-277649D01*
X-423702Y-277652D01*
X-422631Y-277281D01*
X-422627Y-277275D01*
X-422622Y-277277D01*
X-421645Y-276704D01*
X-421642Y-276698D01*
X-421637Y-276699D01*
X-420790Y-275946D01*
X-420788Y-275939D01*
X-420783Y-275939D01*
X-420099Y-275036D01*
X-420099Y-275029D01*
X-420094Y-275028D01*
X-419599Y-274009D01*
X-419601Y-274002D01*
X-419596Y-274000D01*
X-419309Y-272903D01*
X-419311Y-272899D01*
X-419309Y-272898D01*
X-419311Y-272896D01*
X-419308Y-272894D01*
X-419241Y-271763D01*
X-419243Y-271759D01*
X-419241Y-271757D01*
X-419308Y-270626D01*
X-419313Y-270621D01*
X-419309Y-270617D01*
X-419596Y-269520D01*
X-419602Y-269516D01*
X-419599Y-269511D01*
X-420094Y-268492D01*
X-420100Y-268489D01*
X-420099Y-268484D01*
X-420783Y-267581D01*
X-420790Y-267579D01*
X-420790Y-267574D01*
X-421637Y-266821D01*
X-421644Y-266821D01*
X-421645Y-266816D01*
X-422622Y-266243D01*
X-422629Y-266244D01*
X-422631Y-266239D01*
X-423702Y-265868D01*
X-423708Y-265871D01*
X-423711Y-265866D01*
X-424833Y-265711D01*
X-424838Y-265714D01*
X-424840Y-265711D01*
X-436840Y-265711D01*
X-436845Y-265714D01*
X-436848Y-265711D01*
X-438115Y-265916D01*
X-438121Y-265922D01*
X-438126Y-265919D01*
X-439315Y-266401D01*
X-439319Y-266408D01*
X-439325Y-266406D01*
X-440378Y-267140D01*
X-440380Y-267148D01*
X-440386Y-267147D01*
X-441249Y-268097D01*
X-441250Y-268106D01*
X-441255Y-268106D01*
X-441885Y-269225D01*
X-441884Y-269233D01*
X-441890Y-269235D01*
X-442255Y-270465D01*
X-442252Y-270473D01*
X-442257Y-270476D01*
X-442339Y-271757D01*
X-442337Y-271761D01*
X-442339Y-271763D01*
X-442257Y-273044D01*
X-442251Y-273050D01*
X-442255Y-273055D01*
X-441890Y-274285D01*
X-441883Y-274290D01*
X-441885Y-274295D01*
X-441255Y-275414D01*
X-441248Y-275417D01*
X-441249Y-275423D01*
X-440386Y-276373D01*
X-440378Y-276374D01*
X-440378Y-276380D01*
X-439325Y-277114D01*
X-439317Y-277114D01*
X-439315Y-277119D01*
X-438126Y-277601D01*
X-438118Y-277599D01*
X-438115Y-277604D01*
X-436848Y-277809D01*
X-436843Y-277806D01*
X-436840Y-277809D01*
X-424840Y-277809D01*
X-424836Y-277806D01*
G37*
G36*
X-424836Y-364206D02*
X-424836Y-364206D01*
X-424833Y-364209D01*
X-423711Y-364054D01*
X-423706Y-364049D01*
X-423702Y-364052D01*
X-422631Y-363681D01*
X-422627Y-363675D01*
X-422622Y-363677D01*
X-421645Y-363104D01*
X-421642Y-363098D01*
X-421637Y-363099D01*
X-420790Y-362346D01*
X-420788Y-362339D01*
X-420783Y-362339D01*
X-420099Y-361436D01*
X-420099Y-361429D01*
X-420094Y-361428D01*
X-419599Y-360409D01*
X-419601Y-360402D01*
X-419596Y-360400D01*
X-419309Y-359303D01*
X-419311Y-359299D01*
X-419309Y-359298D01*
X-419311Y-359296D01*
X-419308Y-359294D01*
X-419241Y-358163D01*
X-419243Y-358159D01*
X-419241Y-358157D01*
X-419308Y-357026D01*
X-419313Y-357021D01*
X-419309Y-357017D01*
X-419596Y-355920D01*
X-419602Y-355916D01*
X-419599Y-355911D01*
X-420094Y-354892D01*
X-420100Y-354889D01*
X-420099Y-354884D01*
X-420783Y-353981D01*
X-420790Y-353979D01*
X-420790Y-353974D01*
X-421637Y-353221D01*
X-421644Y-353221D01*
X-421645Y-353216D01*
X-422622Y-352643D01*
X-422629Y-352644D01*
X-422631Y-352639D01*
X-423702Y-352268D01*
X-423708Y-352271D01*
X-423711Y-352266D01*
X-424833Y-352111D01*
X-424838Y-352114D01*
X-424840Y-352111D01*
X-436840Y-352111D01*
X-436845Y-352114D01*
X-436848Y-352111D01*
X-438115Y-352316D01*
X-438121Y-352322D01*
X-438126Y-352319D01*
X-439315Y-352801D01*
X-439319Y-352808D01*
X-439325Y-352806D01*
X-440378Y-353540D01*
X-440380Y-353548D01*
X-440386Y-353547D01*
X-441249Y-354497D01*
X-441250Y-354506D01*
X-441255Y-354506D01*
X-441885Y-355625D01*
X-441884Y-355633D01*
X-441890Y-355635D01*
X-442255Y-356865D01*
X-442252Y-356873D01*
X-442257Y-356876D01*
X-442339Y-358157D01*
X-442337Y-358161D01*
X-442339Y-358163D01*
X-442257Y-359444D01*
X-442251Y-359450D01*
X-442255Y-359455D01*
X-441890Y-360685D01*
X-441883Y-360690D01*
X-441885Y-360695D01*
X-441255Y-361814D01*
X-441248Y-361817D01*
X-441249Y-361823D01*
X-440386Y-362773D01*
X-440378Y-362774D01*
X-440378Y-362780D01*
X-439325Y-363514D01*
X-439317Y-363514D01*
X-439315Y-363519D01*
X-438126Y-364001D01*
X-438118Y-363999D01*
X-438115Y-364004D01*
X-436848Y-364209D01*
X-436843Y-364206D01*
X-436840Y-364209D01*
X-424840Y-364209D01*
X-424836Y-364206D01*
G37*
G36*
X-469637Y-277807D02*
X-469637Y-277807D01*
X-469635Y-277809D01*
X-468459Y-277698D01*
X-468454Y-277693D01*
X-468450Y-277696D01*
X-467318Y-277358D01*
X-467314Y-277352D01*
X-467309Y-277354D01*
X-466265Y-276802D01*
X-466262Y-276795D01*
X-466257Y-276797D01*
X-465341Y-276051D01*
X-465340Y-276044D01*
X-465334Y-276044D01*
X-464581Y-275135D01*
X-464581Y-275127D01*
X-464576Y-275127D01*
X-464015Y-274087D01*
X-464016Y-274082D01*
X-464012Y-274080D01*
X-464013Y-274079D01*
X-464011Y-274078D01*
X-463664Y-272949D01*
X-463664Y-272948D01*
X-463663Y-272947D01*
X-463666Y-272943D01*
X-463662Y-272940D01*
X-463541Y-271765D01*
X-463545Y-271758D01*
X-463541Y-271754D01*
X-463698Y-270414D01*
X-463703Y-270408D01*
X-463700Y-270403D01*
X-464151Y-269132D01*
X-464158Y-269127D01*
X-464156Y-269122D01*
X-464878Y-267983D01*
X-464886Y-267980D01*
X-464885Y-267974D01*
X-465843Y-267024D01*
X-465851Y-267023D01*
X-465852Y-267017D01*
X-466997Y-266304D01*
X-467006Y-266305D01*
X-467007Y-266299D01*
X-468283Y-265859D01*
X-468290Y-265861D01*
X-468293Y-265857D01*
X-469635Y-265711D01*
X-469638Y-265713D01*
X-469640Y-265711D01*
X-475640Y-265711D01*
X-475644Y-265713D01*
X-475646Y-265711D01*
X-476975Y-265866D01*
X-476981Y-265872D01*
X-476985Y-265869D01*
X-478246Y-266316D01*
X-478251Y-266323D01*
X-478256Y-266321D01*
X-479386Y-267038D01*
X-479389Y-267045D01*
X-479395Y-267044D01*
X-480337Y-267995D01*
X-480338Y-268003D01*
X-480344Y-268003D01*
X-481051Y-269139D01*
X-481050Y-269147D01*
X-481056Y-269149D01*
X-481492Y-270414D01*
X-481490Y-270422D01*
X-481495Y-270425D01*
X-481639Y-271755D01*
X-481635Y-271761D01*
X-481639Y-271765D01*
X-481529Y-272931D01*
X-481524Y-272936D01*
X-481527Y-272940D01*
X-481192Y-274063D01*
X-481186Y-274067D01*
X-481188Y-274071D01*
X-480640Y-275107D01*
X-480634Y-275110D01*
X-480635Y-275115D01*
X-479896Y-276023D01*
X-479889Y-276025D01*
X-479889Y-276030D01*
X-478987Y-276777D01*
X-478980Y-276777D01*
X-478979Y-276783D01*
X-477948Y-277339D01*
X-477941Y-277338D01*
X-477939Y-277343D01*
X-476820Y-277687D01*
X-476813Y-277685D01*
X-476810Y-277689D01*
X-475645Y-277809D01*
X-475642Y-277807D01*
X-475640Y-277809D01*
X-469640Y-277809D01*
X-469637Y-277807D01*
G37*
G36*
X-469637Y-364207D02*
X-469637Y-364207D01*
X-469635Y-364209D01*
X-468459Y-364098D01*
X-468454Y-364093D01*
X-468450Y-364096D01*
X-467318Y-363758D01*
X-467314Y-363752D01*
X-467309Y-363754D01*
X-466265Y-363202D01*
X-466262Y-363195D01*
X-466257Y-363197D01*
X-465341Y-362451D01*
X-465340Y-362444D01*
X-465334Y-362444D01*
X-464581Y-361535D01*
X-464581Y-361527D01*
X-464576Y-361527D01*
X-464015Y-360487D01*
X-464016Y-360482D01*
X-464012Y-360480D01*
X-464013Y-360479D01*
X-464011Y-360478D01*
X-463664Y-359349D01*
X-463664Y-359348D01*
X-463663Y-359347D01*
X-463666Y-359343D01*
X-463662Y-359340D01*
X-463541Y-358165D01*
X-463545Y-358158D01*
X-463541Y-358154D01*
X-463698Y-356814D01*
X-463703Y-356808D01*
X-463700Y-356803D01*
X-464151Y-355532D01*
X-464158Y-355527D01*
X-464156Y-355522D01*
X-464878Y-354383D01*
X-464886Y-354380D01*
X-464885Y-354374D01*
X-465843Y-353424D01*
X-465851Y-353423D01*
X-465852Y-353417D01*
X-466997Y-352704D01*
X-467006Y-352705D01*
X-467007Y-352699D01*
X-468283Y-352259D01*
X-468290Y-352261D01*
X-468293Y-352257D01*
X-469635Y-352111D01*
X-469638Y-352113D01*
X-469640Y-352111D01*
X-475640Y-352111D01*
X-475644Y-352113D01*
X-475646Y-352111D01*
X-476975Y-352266D01*
X-476981Y-352272D01*
X-476985Y-352269D01*
X-478246Y-352716D01*
X-478251Y-352723D01*
X-478256Y-352721D01*
X-479386Y-353438D01*
X-479389Y-353445D01*
X-479395Y-353444D01*
X-480337Y-354395D01*
X-480338Y-354403D01*
X-480344Y-354403D01*
X-481051Y-355539D01*
X-481050Y-355547D01*
X-481056Y-355549D01*
X-481492Y-356814D01*
X-481490Y-356822D01*
X-481495Y-356825D01*
X-481639Y-358155D01*
X-481635Y-358161D01*
X-481639Y-358165D01*
X-481529Y-359331D01*
X-481524Y-359336D01*
X-481527Y-359340D01*
X-481192Y-360463D01*
X-481186Y-360467D01*
X-481188Y-360471D01*
X-480640Y-361507D01*
X-480634Y-361510D01*
X-480635Y-361515D01*
X-479896Y-362423D01*
X-479889Y-362425D01*
X-479889Y-362430D01*
X-478987Y-363177D01*
X-478980Y-363177D01*
X-478979Y-363183D01*
X-477948Y-363739D01*
X-477941Y-363738D01*
X-477939Y-363743D01*
X-476820Y-364087D01*
X-476813Y-364085D01*
X-476810Y-364089D01*
X-475645Y-364209D01*
X-475642Y-364207D01*
X-475640Y-364209D01*
X-469640Y-364209D01*
X-469637Y-364207D01*
G37*
D10*
X-91840Y-298180D03*
X-91840Y-423180D03*
X-141840Y-298180D03*
X-141840Y-423180D03*
D11*
X-49340Y-360680D03*
X-184340Y-360680D03*
D12*
X-71840Y-360680D03*
X-161840Y-360680D03*
D13*
X-368300Y-461010D03*
D14*
X-393700Y-461010D03*
X-419100Y-461010D03*
D13*
X-284480Y-461010D03*
D14*
X-309880Y-461010D03*
X-335280Y-461010D03*
D13*
X-200660Y-461010D03*
D14*
X-226060Y-461010D03*
X-251460Y-461010D03*
D13*
X-116840Y-461010D03*
D14*
X-142240Y-461010D03*
X-167640Y-461010D03*
D13*
X-33020Y-461010D03*
D14*
X-58420Y-461010D03*
X-83820Y-461010D03*
D13*
X50800Y-461010D03*
D14*
X25400Y-461010D03*
X0Y-461010D03*
X167640Y-264160D03*
X142240Y-264160D03*
X116840Y-264160D03*
X91440Y-264160D03*
X167640Y-289560D03*
X142240Y-289560D03*
X116840Y-289560D03*
X91440Y-289560D03*
X73660Y-27940D03*
X91621Y-45901D03*
X109581Y-63861D03*
X127000Y-45720D03*
X109039Y-27759D03*
X91079Y-9799D03*
X-25400Y-419100D03*
X0Y-419100D03*
X25400Y-419100D03*
X-129540Y-347980D03*
X-104140Y-347980D03*
X-129540Y-373380D03*
X-104140Y-373380D03*
X-482600Y271780D03*
X-482600Y246380D03*
X-482600Y220980D03*
X-482600Y195580D03*
X-482600Y170180D03*
X-482600Y144780D03*
X-482600Y119380D03*
X-482600Y93980D03*
D15*
X-408940Y457200D02*
X-408940Y474980D01*
X-383540Y474980D02*
X-383540Y457200D01*
X-358140Y457200D02*
X-358140Y474980D01*
X-332740Y474980D02*
X-332740Y457200D01*
X-223520Y457200D02*
X-223520Y474980D01*
X-198120Y474980D02*
X-198120Y457200D01*
X-172720Y457200D02*
X-172720Y474980D01*
X-147320Y474980D02*
X-147320Y457200D01*
X-38100Y457200D02*
X-38100Y474980D01*
X-12700Y474980D02*
X-12700Y457200D01*
X12700Y457200D02*
X12700Y474980D01*
X38100Y474980D02*
X38100Y457200D01*
X147320Y457200D02*
X147320Y474980D01*
X172720Y474980D02*
X172720Y457200D01*
X198120Y457200D02*
X198120Y474980D01*
X223520Y474980D02*
X223520Y457200D01*
D16*
X250190Y-358140D02*
X250190Y-373380D01*
X224790Y-373380D02*
X224790Y-358140D01*
X199390Y-358140D02*
X199390Y-373380D01*
X146050Y-373380D02*
X146050Y-358140D01*
X120650Y-358140D02*
X120650Y-373380D01*
X95250Y-373380D02*
X95250Y-358140D01*
D17*
X457200Y-259360D02*
X478536Y-259360D01*
X478536Y-294360D02*
X457200Y-294360D01*
X457200Y-171730D02*
X478536Y-171730D01*
X478536Y-206730D02*
X457200Y-206730D01*
D18*
X472440Y-421640D02*
X486664Y-421640D01*
X447040Y-428752D02*
X447040Y-414528D01*
X396240Y-414528D02*
X396240Y-428752D01*
X421640Y-428752D02*
X421640Y-414528D01*
X396240Y-439928D02*
X396240Y-454152D01*
X421640Y-454152D02*
X421640Y-439928D01*
D14*
X-279400Y68580D03*
X-254000Y68580D03*
X-228600Y68580D03*
X-228600Y93980D03*
X-254000Y93980D03*
X-279400Y93980D03*
D19*
X-327660Y-130810D03*
D20*
X-302260Y-143510D03*
X-327660Y-156210D03*
X-302260Y-168910D03*
X-327660Y-181610D03*
X-302260Y-194310D03*
X-327660Y-207010D03*
X-302260Y-219710D03*
D21*
X-361950Y-95250D03*
X-361950Y-255270D03*
D20*
X-440690Y-241300D03*
X-440690Y-215900D03*
X-440690Y-109220D03*
X-440690Y-134620D03*
D22*
X-391160Y-118110D03*
X-391160Y-232410D03*
D14*
X66040Y-264160D03*
X66040Y-289560D03*
X66040Y-314960D03*
X-408940Y198120D03*
X-383540Y198120D03*
X-358140Y198120D03*
X-332740Y198120D03*
X-223520Y198120D03*
X-198120Y198120D03*
X-172720Y198120D03*
X-147320Y198120D03*
X-38100Y198120D03*
X-12700Y198120D03*
X12700Y198120D03*
X38100Y198120D03*
X147320Y198120D03*
X172720Y198120D03*
X198120Y198120D03*
X223520Y198120D03*
X154940Y-205740D03*
X154940Y-180340D03*
X154940Y-154940D03*
X154940Y-129540D03*
D23*
X-402590Y-431800D03*
X-393700Y-431800D03*
X-384810Y-431800D03*
D24*
X96520Y-434340D02*
X96520Y-456840D01*
X147320Y-456840D02*
X147320Y-434340D01*
D15*
X332740Y457200D02*
X332740Y474980D01*
X358140Y474980D02*
X358140Y457200D01*
X383540Y457200D02*
X383540Y474980D01*
X408940Y474980D02*
X408940Y457200D01*
D14*
X332740Y198120D03*
X358140Y198120D03*
X383540Y198120D03*
X408940Y198120D03*
D17*
X457200Y-84100D02*
X478536Y-84100D01*
X478536Y-119100D02*
X457200Y-119100D01*
D16*
X375920Y27940D02*
X360680Y27940D01*
X360680Y2540D02*
X375920Y2540D01*
X375920Y-22860D02*
X360680Y-22860D01*
D14*
X-170180Y-279400D03*
X-195580Y-279400D03*
X-220980Y-279400D03*
X-246380Y-279400D03*
X-271780Y-279400D03*
X262890Y-104140D03*
X262890Y-129540D03*
X262890Y-154940D03*
X262890Y-180340D03*
X262890Y-205740D03*
X-12700Y25400D03*
X12700Y25400D03*
X38100Y25400D03*
X63500Y25400D03*
D23*
X-349250Y-431800D03*
X-358140Y-431800D03*
X-367030Y-431800D03*
X115570Y-203200D03*
X124460Y-203200D03*
X133350Y-203200D03*
D14*
X63500Y50800D03*
X38100Y50800D03*
X12700Y50800D03*
X-12700Y50800D03*
D24*
X436880Y-22860D02*
X459380Y-22860D01*
X459380Y27940D02*
X436880Y27940D01*
D14*
X-457200Y297180D03*
X-482600Y297180D03*
D25*
X-467360Y469900D03*
D26*
X-467360Y491900D03*
X-467360Y447900D03*
X-489360Y469900D03*
X-445360Y469900D03*
X-451860Y485400D03*
X-451860Y454400D03*
X-482860Y485400D03*
X-482860Y454400D03*
D25*
X467360Y-464820D03*
D26*
X467360Y-442820D03*
X467360Y-486820D03*
X445360Y-464820D03*
X489360Y-464820D03*
X482860Y-449320D03*
X482860Y-480320D03*
X451860Y-449320D03*
X451860Y-480320D03*
D25*
X467360Y469900D03*
D26*
X467360Y491900D03*
X467360Y447900D03*
X445360Y469900D03*
X489360Y469900D03*
X482860Y485400D03*
X482860Y454400D03*
X451860Y485400D03*
X451860Y454400D03*
D25*
X-467360Y-464820D03*
D26*
X-467360Y-442820D03*
X-467360Y-486820D03*
X-489360Y-464820D03*
X-445360Y-464820D03*
X-451860Y-449320D03*
X-451860Y-480320D03*
X-482860Y-449320D03*
X-482860Y-480320D03*
D24*
X436880Y97790D02*
X459380Y97790D01*
X459380Y148590D02*
X436880Y148590D01*
X198120Y-434340D02*
X198120Y-456840D01*
X248920Y-456840D02*
X248920Y-434340D01*
D17*
X457200Y-346990D02*
X478536Y-346990D01*
X478536Y-381990D02*
X457200Y-381990D01*
D24*
X299720Y-434340D02*
X299720Y-456840D01*
X350520Y-456840D02*
X350520Y-434340D01*
D14*
X-368300Y-397510D03*
X-393700Y-397510D03*
X-419100Y-397510D03*
X-444500Y-397510D03*
X186690Y-78740D03*
X212090Y-78740D03*
X237490Y-78740D03*
D27*
X-71120Y-259080D03*
D28*
X-436090Y-286060D03*
X-436090Y-343860D03*
M02*
