G04 EAGLE Gerber RS-274X export*
G75*
%MOMM*%
%FSLAX34Y34*%
%LPD*%
%INGKO*%
%IPPOS*%
%AMOC8*
5,1,8,0,0,1.08239X$1,22.5*%
G01*
%ADD10C,0.254000*%


D10*
X-499872Y-464820D02*
X-499829Y-467580D01*
X-499546Y-470325D01*
X-499025Y-473035D01*
X-498269Y-475689D01*
X-497285Y-478268D01*
X-496080Y-480751D01*
X-494663Y-483119D01*
X-493045Y-485355D01*
X-491238Y-487441D01*
X-489257Y-489362D01*
X-487115Y-491103D01*
X-484830Y-492651D01*
X-482419Y-493993D01*
X-479900Y-495121D01*
X-477292Y-496024D01*
X-474616Y-496697D01*
X-471891Y-497134D01*
X-469138Y-497332D01*
X467360Y-497332D01*
X470194Y-497208D01*
X473006Y-496838D01*
X475775Y-496224D01*
X478480Y-495371D01*
X481100Y-494286D01*
X483616Y-492976D01*
X486008Y-491452D01*
X488258Y-489726D01*
X490349Y-487809D01*
X492266Y-485718D01*
X493992Y-483468D01*
X495516Y-481076D01*
X496826Y-478560D01*
X497911Y-475940D01*
X498764Y-473235D01*
X499378Y-470466D01*
X499748Y-467654D01*
X499872Y-464820D01*
X499872Y469900D01*
X499748Y472734D01*
X499378Y475546D01*
X498764Y478315D01*
X497911Y481020D01*
X496826Y483640D01*
X495516Y486156D01*
X493992Y488548D01*
X492266Y490798D01*
X490349Y492889D01*
X488258Y494806D01*
X486008Y496532D01*
X483616Y498056D01*
X481100Y499366D01*
X478480Y500451D01*
X475775Y501304D01*
X473006Y501918D01*
X470194Y502288D01*
X467360Y502412D01*
X-469138Y502412D01*
X-471891Y502214D01*
X-474616Y501777D01*
X-477292Y501104D01*
X-479900Y500201D01*
X-482419Y499073D01*
X-484830Y497731D01*
X-487115Y496183D01*
X-489257Y494442D01*
X-491238Y492521D01*
X-493045Y490435D01*
X-494663Y488199D01*
X-496080Y485831D01*
X-497285Y483348D01*
X-498269Y480769D01*
X-499025Y478115D01*
X-499546Y475405D01*
X-499829Y472660D01*
X-499872Y469900D01*
X-499872Y-464820D01*
X-436290Y-361160D02*
X-425290Y-361160D01*
X-425029Y-361149D01*
X-424769Y-361114D01*
X-424514Y-361058D01*
X-424264Y-360979D01*
X-424022Y-360879D01*
X-423790Y-360758D01*
X-423569Y-360617D01*
X-423362Y-360458D01*
X-423169Y-360281D01*
X-422992Y-360088D01*
X-422833Y-359881D01*
X-422692Y-359660D01*
X-422571Y-359428D01*
X-422471Y-359186D01*
X-422392Y-358936D01*
X-422336Y-358681D01*
X-422301Y-358421D01*
X-422290Y-358160D01*
X-422301Y-357899D01*
X-422336Y-357639D01*
X-422392Y-357384D01*
X-422471Y-357134D01*
X-422571Y-356892D01*
X-422692Y-356660D01*
X-422833Y-356439D01*
X-422992Y-356232D01*
X-423169Y-356039D01*
X-423362Y-355862D01*
X-423569Y-355703D01*
X-423790Y-355562D01*
X-424022Y-355441D01*
X-424264Y-355341D01*
X-424514Y-355262D01*
X-424769Y-355206D01*
X-425029Y-355171D01*
X-425290Y-355160D01*
X-436290Y-355160D01*
X-436551Y-355171D01*
X-436811Y-355206D01*
X-437066Y-355262D01*
X-437316Y-355341D01*
X-437558Y-355441D01*
X-437790Y-355562D01*
X-438011Y-355703D01*
X-438218Y-355862D01*
X-438411Y-356039D01*
X-438588Y-356232D01*
X-438747Y-356439D01*
X-438888Y-356660D01*
X-439009Y-356892D01*
X-439109Y-357134D01*
X-439188Y-357384D01*
X-439244Y-357639D01*
X-439279Y-357899D01*
X-439290Y-358160D01*
X-439279Y-358421D01*
X-439244Y-358681D01*
X-439188Y-358936D01*
X-439109Y-359186D01*
X-439009Y-359428D01*
X-438888Y-359660D01*
X-438747Y-359881D01*
X-438588Y-360088D01*
X-438411Y-360281D01*
X-438218Y-360458D01*
X-438011Y-360617D01*
X-437790Y-360758D01*
X-437558Y-360879D01*
X-437316Y-360979D01*
X-437066Y-361058D01*
X-436811Y-361114D01*
X-436551Y-361149D01*
X-436290Y-361160D01*
X-475640Y-361160D02*
X-469440Y-361160D01*
X-469179Y-361149D01*
X-468919Y-361114D01*
X-468664Y-361058D01*
X-468414Y-360979D01*
X-468172Y-360879D01*
X-467940Y-360758D01*
X-467719Y-360617D01*
X-467512Y-360458D01*
X-467319Y-360281D01*
X-467142Y-360088D01*
X-466983Y-359881D01*
X-466842Y-359660D01*
X-466721Y-359428D01*
X-466621Y-359186D01*
X-466542Y-358936D01*
X-466486Y-358681D01*
X-466451Y-358421D01*
X-466440Y-358160D01*
X-466451Y-357899D01*
X-466486Y-357639D01*
X-466542Y-357384D01*
X-466621Y-357134D01*
X-466721Y-356892D01*
X-466842Y-356660D01*
X-466983Y-356439D01*
X-467142Y-356232D01*
X-467319Y-356039D01*
X-467512Y-355862D01*
X-467719Y-355703D01*
X-467940Y-355562D01*
X-468172Y-355441D01*
X-468414Y-355341D01*
X-468664Y-355262D01*
X-468919Y-355206D01*
X-469179Y-355171D01*
X-469440Y-355160D01*
X-475640Y-355160D01*
X-475901Y-355171D01*
X-476161Y-355206D01*
X-476416Y-355262D01*
X-476666Y-355341D01*
X-476908Y-355441D01*
X-477140Y-355562D01*
X-477361Y-355703D01*
X-477568Y-355862D01*
X-477761Y-356039D01*
X-477938Y-356232D01*
X-478097Y-356439D01*
X-478238Y-356660D01*
X-478359Y-356892D01*
X-478459Y-357134D01*
X-478538Y-357384D01*
X-478594Y-357639D01*
X-478629Y-357899D01*
X-478640Y-358160D01*
X-478629Y-358421D01*
X-478594Y-358681D01*
X-478538Y-358936D01*
X-478459Y-359186D01*
X-478359Y-359428D01*
X-478238Y-359660D01*
X-478097Y-359881D01*
X-477938Y-360088D01*
X-477761Y-360281D01*
X-477568Y-360458D01*
X-477361Y-360617D01*
X-477140Y-360758D01*
X-476908Y-360879D01*
X-476666Y-360979D01*
X-476416Y-361058D01*
X-476161Y-361114D01*
X-475901Y-361149D01*
X-475640Y-361160D01*
X-475640Y-274760D02*
X-469440Y-274760D01*
X-469179Y-274749D01*
X-468919Y-274714D01*
X-468664Y-274658D01*
X-468414Y-274579D01*
X-468172Y-274479D01*
X-467940Y-274358D01*
X-467719Y-274217D01*
X-467512Y-274058D01*
X-467319Y-273881D01*
X-467142Y-273688D01*
X-466983Y-273481D01*
X-466842Y-273260D01*
X-466721Y-273028D01*
X-466621Y-272786D01*
X-466542Y-272536D01*
X-466486Y-272281D01*
X-466451Y-272021D01*
X-466440Y-271760D01*
X-466451Y-271499D01*
X-466486Y-271239D01*
X-466542Y-270984D01*
X-466621Y-270734D01*
X-466721Y-270492D01*
X-466842Y-270260D01*
X-466983Y-270039D01*
X-467142Y-269832D01*
X-467319Y-269639D01*
X-467512Y-269462D01*
X-467719Y-269303D01*
X-467940Y-269162D01*
X-468172Y-269041D01*
X-468414Y-268941D01*
X-468664Y-268862D01*
X-468919Y-268806D01*
X-469179Y-268771D01*
X-469440Y-268760D01*
X-475640Y-268760D01*
X-475901Y-268771D01*
X-476161Y-268806D01*
X-476416Y-268862D01*
X-476666Y-268941D01*
X-476908Y-269041D01*
X-477140Y-269162D01*
X-477361Y-269303D01*
X-477568Y-269462D01*
X-477761Y-269639D01*
X-477938Y-269832D01*
X-478097Y-270039D01*
X-478238Y-270260D01*
X-478359Y-270492D01*
X-478459Y-270734D01*
X-478538Y-270984D01*
X-478594Y-271239D01*
X-478629Y-271499D01*
X-478640Y-271760D01*
X-478629Y-272021D01*
X-478594Y-272281D01*
X-478538Y-272536D01*
X-478459Y-272786D01*
X-478359Y-273028D01*
X-478238Y-273260D01*
X-478097Y-273481D01*
X-477938Y-273688D01*
X-477761Y-273881D01*
X-477568Y-274058D01*
X-477361Y-274217D01*
X-477140Y-274358D01*
X-476908Y-274479D01*
X-476666Y-274579D01*
X-476416Y-274658D01*
X-476161Y-274714D01*
X-475901Y-274749D01*
X-475640Y-274760D01*
X-436290Y-274760D02*
X-425290Y-274760D01*
X-425029Y-274749D01*
X-424769Y-274714D01*
X-424514Y-274658D01*
X-424264Y-274579D01*
X-424022Y-274479D01*
X-423790Y-274358D01*
X-423569Y-274217D01*
X-423362Y-274058D01*
X-423169Y-273881D01*
X-422992Y-273688D01*
X-422833Y-273481D01*
X-422692Y-273260D01*
X-422571Y-273028D01*
X-422471Y-272786D01*
X-422392Y-272536D01*
X-422336Y-272281D01*
X-422301Y-272021D01*
X-422290Y-271760D01*
X-422301Y-271499D01*
X-422336Y-271239D01*
X-422392Y-270984D01*
X-422471Y-270734D01*
X-422571Y-270492D01*
X-422692Y-270260D01*
X-422833Y-270039D01*
X-422992Y-269832D01*
X-423169Y-269639D01*
X-423362Y-269462D01*
X-423569Y-269303D01*
X-423790Y-269162D01*
X-424022Y-269041D01*
X-424264Y-268941D01*
X-424514Y-268862D01*
X-424769Y-268806D01*
X-425029Y-268771D01*
X-425290Y-268760D01*
X-436290Y-268760D01*
X-436551Y-268771D01*
X-436811Y-268806D01*
X-437066Y-268862D01*
X-437316Y-268941D01*
X-437558Y-269041D01*
X-437790Y-269162D01*
X-438011Y-269303D01*
X-438218Y-269462D01*
X-438411Y-269639D01*
X-438588Y-269832D01*
X-438747Y-270039D01*
X-438888Y-270260D01*
X-439009Y-270492D01*
X-439109Y-270734D01*
X-439188Y-270984D01*
X-439244Y-271239D01*
X-439279Y-271499D01*
X-439290Y-271760D01*
X-439279Y-272021D01*
X-439244Y-272281D01*
X-439188Y-272536D01*
X-439109Y-272786D01*
X-439009Y-273028D01*
X-438888Y-273260D01*
X-438747Y-273481D01*
X-438588Y-273688D01*
X-438411Y-273881D01*
X-438218Y-274058D01*
X-438011Y-274217D01*
X-437790Y-274358D01*
X-437558Y-274479D01*
X-437316Y-274579D01*
X-437066Y-274658D01*
X-436811Y-274714D01*
X-436551Y-274749D01*
X-436290Y-274760D01*
X-436290Y-361160D02*
X-425290Y-361160D01*
X-425029Y-361149D01*
X-424769Y-361114D01*
X-424514Y-361058D01*
X-424264Y-360979D01*
X-424022Y-360879D01*
X-423790Y-360758D01*
X-423569Y-360617D01*
X-423362Y-360458D01*
X-423169Y-360281D01*
X-422992Y-360088D01*
X-422833Y-359881D01*
X-422692Y-359660D01*
X-422571Y-359428D01*
X-422471Y-359186D01*
X-422392Y-358936D01*
X-422336Y-358681D01*
X-422301Y-358421D01*
X-422290Y-358160D01*
X-422301Y-357899D01*
X-422336Y-357639D01*
X-422392Y-357384D01*
X-422471Y-357134D01*
X-422571Y-356892D01*
X-422692Y-356660D01*
X-422833Y-356439D01*
X-422992Y-356232D01*
X-423169Y-356039D01*
X-423362Y-355862D01*
X-423569Y-355703D01*
X-423790Y-355562D01*
X-424022Y-355441D01*
X-424264Y-355341D01*
X-424514Y-355262D01*
X-424769Y-355206D01*
X-425029Y-355171D01*
X-425290Y-355160D01*
X-436290Y-355160D01*
X-436551Y-355171D01*
X-436811Y-355206D01*
X-437066Y-355262D01*
X-437316Y-355341D01*
X-437558Y-355441D01*
X-437790Y-355562D01*
X-438011Y-355703D01*
X-438218Y-355862D01*
X-438411Y-356039D01*
X-438588Y-356232D01*
X-438747Y-356439D01*
X-438888Y-356660D01*
X-439009Y-356892D01*
X-439109Y-357134D01*
X-439188Y-357384D01*
X-439244Y-357639D01*
X-439279Y-357899D01*
X-439290Y-358160D01*
X-439279Y-358421D01*
X-439244Y-358681D01*
X-439188Y-358936D01*
X-439109Y-359186D01*
X-439009Y-359428D01*
X-438888Y-359660D01*
X-438747Y-359881D01*
X-438588Y-360088D01*
X-438411Y-360281D01*
X-438218Y-360458D01*
X-438011Y-360617D01*
X-437790Y-360758D01*
X-437558Y-360879D01*
X-437316Y-360979D01*
X-437066Y-361058D01*
X-436811Y-361114D01*
X-436551Y-361149D01*
X-436290Y-361160D01*
X-475640Y-361160D02*
X-469440Y-361160D01*
X-469179Y-361149D01*
X-468919Y-361114D01*
X-468664Y-361058D01*
X-468414Y-360979D01*
X-468172Y-360879D01*
X-467940Y-360758D01*
X-467719Y-360617D01*
X-467512Y-360458D01*
X-467319Y-360281D01*
X-467142Y-360088D01*
X-466983Y-359881D01*
X-466842Y-359660D01*
X-466721Y-359428D01*
X-466621Y-359186D01*
X-466542Y-358936D01*
X-466486Y-358681D01*
X-466451Y-358421D01*
X-466440Y-358160D01*
X-466451Y-357899D01*
X-466486Y-357639D01*
X-466542Y-357384D01*
X-466621Y-357134D01*
X-466721Y-356892D01*
X-466842Y-356660D01*
X-466983Y-356439D01*
X-467142Y-356232D01*
X-467319Y-356039D01*
X-467512Y-355862D01*
X-467719Y-355703D01*
X-467940Y-355562D01*
X-468172Y-355441D01*
X-468414Y-355341D01*
X-468664Y-355262D01*
X-468919Y-355206D01*
X-469179Y-355171D01*
X-469440Y-355160D01*
X-475640Y-355160D01*
X-475901Y-355171D01*
X-476161Y-355206D01*
X-476416Y-355262D01*
X-476666Y-355341D01*
X-476908Y-355441D01*
X-477140Y-355562D01*
X-477361Y-355703D01*
X-477568Y-355862D01*
X-477761Y-356039D01*
X-477938Y-356232D01*
X-478097Y-356439D01*
X-478238Y-356660D01*
X-478359Y-356892D01*
X-478459Y-357134D01*
X-478538Y-357384D01*
X-478594Y-357639D01*
X-478629Y-357899D01*
X-478640Y-358160D01*
X-478629Y-358421D01*
X-478594Y-358681D01*
X-478538Y-358936D01*
X-478459Y-359186D01*
X-478359Y-359428D01*
X-478238Y-359660D01*
X-478097Y-359881D01*
X-477938Y-360088D01*
X-477761Y-360281D01*
X-477568Y-360458D01*
X-477361Y-360617D01*
X-477140Y-360758D01*
X-476908Y-360879D01*
X-476666Y-360979D01*
X-476416Y-361058D01*
X-476161Y-361114D01*
X-475901Y-361149D01*
X-475640Y-361160D01*
X-436290Y-274760D02*
X-425290Y-274760D01*
X-425029Y-274749D01*
X-424769Y-274714D01*
X-424514Y-274658D01*
X-424264Y-274579D01*
X-424022Y-274479D01*
X-423790Y-274358D01*
X-423569Y-274217D01*
X-423362Y-274058D01*
X-423169Y-273881D01*
X-422992Y-273688D01*
X-422833Y-273481D01*
X-422692Y-273260D01*
X-422571Y-273028D01*
X-422471Y-272786D01*
X-422392Y-272536D01*
X-422336Y-272281D01*
X-422301Y-272021D01*
X-422290Y-271760D01*
X-422301Y-271499D01*
X-422336Y-271239D01*
X-422392Y-270984D01*
X-422471Y-270734D01*
X-422571Y-270492D01*
X-422692Y-270260D01*
X-422833Y-270039D01*
X-422992Y-269832D01*
X-423169Y-269639D01*
X-423362Y-269462D01*
X-423569Y-269303D01*
X-423790Y-269162D01*
X-424022Y-269041D01*
X-424264Y-268941D01*
X-424514Y-268862D01*
X-424769Y-268806D01*
X-425029Y-268771D01*
X-425290Y-268760D01*
X-436290Y-268760D01*
X-436551Y-268771D01*
X-436811Y-268806D01*
X-437066Y-268862D01*
X-437316Y-268941D01*
X-437558Y-269041D01*
X-437790Y-269162D01*
X-438011Y-269303D01*
X-438218Y-269462D01*
X-438411Y-269639D01*
X-438588Y-269832D01*
X-438747Y-270039D01*
X-438888Y-270260D01*
X-439009Y-270492D01*
X-439109Y-270734D01*
X-439188Y-270984D01*
X-439244Y-271239D01*
X-439279Y-271499D01*
X-439290Y-271760D01*
X-439279Y-272021D01*
X-439244Y-272281D01*
X-439188Y-272536D01*
X-439109Y-272786D01*
X-439009Y-273028D01*
X-438888Y-273260D01*
X-438747Y-273481D01*
X-438588Y-273688D01*
X-438411Y-273881D01*
X-438218Y-274058D01*
X-438011Y-274217D01*
X-437790Y-274358D01*
X-437558Y-274479D01*
X-437316Y-274579D01*
X-437066Y-274658D01*
X-436811Y-274714D01*
X-436551Y-274749D01*
X-436290Y-274760D01*
X-475640Y-274760D02*
X-469440Y-274760D01*
X-469179Y-274749D01*
X-468919Y-274714D01*
X-468664Y-274658D01*
X-468414Y-274579D01*
X-468172Y-274479D01*
X-467940Y-274358D01*
X-467719Y-274217D01*
X-467512Y-274058D01*
X-467319Y-273881D01*
X-467142Y-273688D01*
X-466983Y-273481D01*
X-466842Y-273260D01*
X-466721Y-273028D01*
X-466621Y-272786D01*
X-466542Y-272536D01*
X-466486Y-272281D01*
X-466451Y-272021D01*
X-466440Y-271760D01*
X-466451Y-271499D01*
X-466486Y-271239D01*
X-466542Y-270984D01*
X-466621Y-270734D01*
X-466721Y-270492D01*
X-466842Y-270260D01*
X-466983Y-270039D01*
X-467142Y-269832D01*
X-467319Y-269639D01*
X-467512Y-269462D01*
X-467719Y-269303D01*
X-467940Y-269162D01*
X-468172Y-269041D01*
X-468414Y-268941D01*
X-468664Y-268862D01*
X-468919Y-268806D01*
X-469179Y-268771D01*
X-469440Y-268760D01*
X-475640Y-268760D01*
X-475901Y-268771D01*
X-476161Y-268806D01*
X-476416Y-268862D01*
X-476666Y-268941D01*
X-476908Y-269041D01*
X-477140Y-269162D01*
X-477361Y-269303D01*
X-477568Y-269462D01*
X-477761Y-269639D01*
X-477938Y-269832D01*
X-478097Y-270039D01*
X-478238Y-270260D01*
X-478359Y-270492D01*
X-478459Y-270734D01*
X-478538Y-270984D01*
X-478594Y-271239D01*
X-478629Y-271499D01*
X-478640Y-271760D01*
X-478629Y-272021D01*
X-478594Y-272281D01*
X-478538Y-272536D01*
X-478459Y-272786D01*
X-478359Y-273028D01*
X-478238Y-273260D01*
X-478097Y-273481D01*
X-477938Y-273688D01*
X-477761Y-273881D01*
X-477568Y-274058D01*
X-477361Y-274217D01*
X-477140Y-274358D01*
X-476908Y-274479D01*
X-476666Y-274579D01*
X-476416Y-274658D01*
X-476161Y-274714D01*
X-475901Y-274749D01*
X-475640Y-274760D01*
X-72233Y-368680D02*
X-73015Y-368603D01*
X-73786Y-368450D01*
X-74538Y-368221D01*
X-75265Y-367921D01*
X-75958Y-367550D01*
X-76611Y-367113D01*
X-77219Y-366615D01*
X-77775Y-366059D01*
X-78273Y-365451D01*
X-78710Y-364798D01*
X-79081Y-364105D01*
X-79381Y-363378D01*
X-79610Y-362626D01*
X-79763Y-361855D01*
X-79840Y-361073D01*
X-79840Y-360287D01*
X-79763Y-359505D01*
X-79610Y-358734D01*
X-79381Y-357982D01*
X-79081Y-357255D01*
X-78710Y-356562D01*
X-78273Y-355909D01*
X-77775Y-355301D01*
X-77219Y-354745D01*
X-76611Y-354247D01*
X-75958Y-353810D01*
X-75265Y-353439D01*
X-74538Y-353139D01*
X-73786Y-352910D01*
X-73015Y-352757D01*
X-72233Y-352680D01*
X-71447Y-352680D01*
X-70665Y-352757D01*
X-69894Y-352910D01*
X-69142Y-353139D01*
X-68415Y-353439D01*
X-67722Y-353810D01*
X-67069Y-354247D01*
X-66461Y-354745D01*
X-65905Y-355301D01*
X-65407Y-355909D01*
X-64970Y-356562D01*
X-64599Y-357255D01*
X-64299Y-357982D01*
X-64070Y-358734D01*
X-63917Y-359505D01*
X-63840Y-360287D01*
X-63840Y-361073D01*
X-63917Y-361855D01*
X-64070Y-362626D01*
X-64299Y-363378D01*
X-64599Y-364105D01*
X-64970Y-364798D01*
X-65407Y-365451D01*
X-65905Y-366059D01*
X-66461Y-366615D01*
X-67069Y-367113D01*
X-67722Y-367550D01*
X-68415Y-367921D01*
X-69142Y-368221D01*
X-69894Y-368450D01*
X-70665Y-368603D01*
X-71447Y-368680D01*
X-72233Y-368680D01*
X-162233Y-368680D02*
X-163015Y-368603D01*
X-163786Y-368450D01*
X-164538Y-368221D01*
X-165265Y-367921D01*
X-165958Y-367550D01*
X-166611Y-367113D01*
X-167219Y-366615D01*
X-167775Y-366059D01*
X-168273Y-365451D01*
X-168710Y-364798D01*
X-169081Y-364105D01*
X-169381Y-363378D01*
X-169610Y-362626D01*
X-169763Y-361855D01*
X-169840Y-361073D01*
X-169840Y-360287D01*
X-169763Y-359505D01*
X-169610Y-358734D01*
X-169381Y-357982D01*
X-169081Y-357255D01*
X-168710Y-356562D01*
X-168273Y-355909D01*
X-167775Y-355301D01*
X-167219Y-354745D01*
X-166611Y-354247D01*
X-165958Y-353810D01*
X-165265Y-353439D01*
X-164538Y-353139D01*
X-163786Y-352910D01*
X-163015Y-352757D01*
X-162233Y-352680D01*
X-161447Y-352680D01*
X-160665Y-352757D01*
X-159894Y-352910D01*
X-159142Y-353139D01*
X-158415Y-353439D01*
X-157722Y-353810D01*
X-157069Y-354247D01*
X-156461Y-354745D01*
X-155905Y-355301D01*
X-155407Y-355909D01*
X-154970Y-356562D01*
X-154599Y-357255D01*
X-154299Y-357982D01*
X-154070Y-358734D01*
X-153917Y-359505D01*
X-153840Y-360287D01*
X-153840Y-361073D01*
X-153917Y-361855D01*
X-154070Y-362626D01*
X-154299Y-363378D01*
X-154599Y-364105D01*
X-154970Y-364798D01*
X-155407Y-365451D01*
X-155905Y-366059D01*
X-156461Y-366615D01*
X-157069Y-367113D01*
X-157722Y-367550D01*
X-158415Y-367921D01*
X-159142Y-368221D01*
X-159894Y-368450D01*
X-160665Y-368603D01*
X-161447Y-368680D01*
X-162233Y-368680D01*
X-408940Y-117528D02*
X-408864Y-116366D01*
X-408712Y-115212D01*
X-408485Y-114070D01*
X-408184Y-112946D01*
X-407809Y-111844D01*
X-407364Y-110768D01*
X-406849Y-109724D01*
X-406267Y-108716D01*
X-405620Y-107748D01*
X-404912Y-106824D01*
X-404144Y-105949D01*
X-403321Y-105126D01*
X-402446Y-104359D01*
X-401522Y-103650D01*
X-400554Y-103003D01*
X-399546Y-102421D01*
X-398502Y-101906D01*
X-397426Y-101461D01*
X-396324Y-101087D01*
X-395200Y-100785D01*
X-394058Y-100558D01*
X-392904Y-100406D01*
X-391742Y-100330D01*
X-390578Y-100330D01*
X-389416Y-100406D01*
X-388262Y-100558D01*
X-387120Y-100785D01*
X-385996Y-101087D01*
X-384894Y-101461D01*
X-383818Y-101906D01*
X-382774Y-102421D01*
X-381766Y-103003D01*
X-380798Y-103650D01*
X-379874Y-104359D01*
X-378999Y-105126D01*
X-378176Y-105949D01*
X-377409Y-106824D01*
X-376700Y-107748D01*
X-376053Y-108716D01*
X-375471Y-109724D01*
X-374956Y-110768D01*
X-374511Y-111844D01*
X-374137Y-112946D01*
X-373835Y-114070D01*
X-373608Y-115212D01*
X-373456Y-116366D01*
X-373380Y-117528D01*
X-373380Y-118692D01*
X-373456Y-119854D01*
X-373608Y-121008D01*
X-373835Y-122150D01*
X-374137Y-123274D01*
X-374511Y-124376D01*
X-374956Y-125452D01*
X-375471Y-126496D01*
X-376053Y-127504D01*
X-376700Y-128472D01*
X-377409Y-129396D01*
X-378176Y-130271D01*
X-378999Y-131094D01*
X-379874Y-131862D01*
X-380798Y-132570D01*
X-381766Y-133217D01*
X-382774Y-133799D01*
X-383818Y-134314D01*
X-384894Y-134759D01*
X-385996Y-135134D01*
X-387120Y-135435D01*
X-388262Y-135662D01*
X-389416Y-135814D01*
X-390578Y-135890D01*
X-391742Y-135890D01*
X-392904Y-135814D01*
X-394058Y-135662D01*
X-395200Y-135435D01*
X-396324Y-135134D01*
X-397426Y-134759D01*
X-398502Y-134314D01*
X-399546Y-133799D01*
X-400554Y-133217D01*
X-401522Y-132570D01*
X-402446Y-131862D01*
X-403321Y-131094D01*
X-404144Y-130271D01*
X-404912Y-129396D01*
X-405620Y-128472D01*
X-406267Y-127504D01*
X-406849Y-126496D01*
X-407364Y-125452D01*
X-407809Y-124376D01*
X-408184Y-123274D01*
X-408485Y-122150D01*
X-408712Y-121008D01*
X-408864Y-119854D01*
X-408940Y-118692D01*
X-408940Y-117528D01*
X-408940Y-231828D02*
X-408864Y-230666D01*
X-408712Y-229512D01*
X-408485Y-228370D01*
X-408184Y-227246D01*
X-407809Y-226144D01*
X-407364Y-225068D01*
X-406849Y-224024D01*
X-406267Y-223016D01*
X-405620Y-222048D01*
X-404912Y-221124D01*
X-404144Y-220249D01*
X-403321Y-219426D01*
X-402446Y-218659D01*
X-401522Y-217950D01*
X-400554Y-217303D01*
X-399546Y-216721D01*
X-398502Y-216206D01*
X-397426Y-215761D01*
X-396324Y-215387D01*
X-395200Y-215085D01*
X-394058Y-214858D01*
X-392904Y-214706D01*
X-391742Y-214630D01*
X-390578Y-214630D01*
X-389416Y-214706D01*
X-388262Y-214858D01*
X-387120Y-215085D01*
X-385996Y-215387D01*
X-384894Y-215761D01*
X-383818Y-216206D01*
X-382774Y-216721D01*
X-381766Y-217303D01*
X-380798Y-217950D01*
X-379874Y-218659D01*
X-378999Y-219426D01*
X-378176Y-220249D01*
X-377409Y-221124D01*
X-376700Y-222048D01*
X-376053Y-223016D01*
X-375471Y-224024D01*
X-374956Y-225068D01*
X-374511Y-226144D01*
X-374137Y-227246D01*
X-373835Y-228370D01*
X-373608Y-229512D01*
X-373456Y-230666D01*
X-373380Y-231828D01*
X-373380Y-232992D01*
X-373456Y-234154D01*
X-373608Y-235308D01*
X-373835Y-236450D01*
X-374137Y-237574D01*
X-374511Y-238676D01*
X-374956Y-239752D01*
X-375471Y-240796D01*
X-376053Y-241804D01*
X-376700Y-242772D01*
X-377409Y-243696D01*
X-378176Y-244571D01*
X-378999Y-245394D01*
X-379874Y-246162D01*
X-380798Y-246870D01*
X-381766Y-247517D01*
X-382774Y-248099D01*
X-383818Y-248614D01*
X-384894Y-249059D01*
X-385996Y-249434D01*
X-387120Y-249735D01*
X-388262Y-249962D01*
X-389416Y-250114D01*
X-390578Y-250190D01*
X-391742Y-250190D01*
X-392904Y-250114D01*
X-394058Y-249962D01*
X-395200Y-249735D01*
X-396324Y-249434D01*
X-397426Y-249059D01*
X-398502Y-248614D01*
X-399546Y-248099D01*
X-400554Y-247517D01*
X-401522Y-246870D01*
X-402446Y-246162D01*
X-403321Y-245394D01*
X-404144Y-244571D01*
X-404912Y-243696D01*
X-405620Y-242772D01*
X-406267Y-241804D01*
X-406849Y-240796D01*
X-407364Y-239752D01*
X-407809Y-238676D01*
X-408184Y-237574D01*
X-408485Y-236450D01*
X-408712Y-235308D01*
X-408864Y-234154D01*
X-408940Y-232992D01*
X-408940Y-231828D01*
X-436303Y-289310D02*
X-436725Y-289254D01*
X-437137Y-289144D01*
X-437531Y-288981D01*
X-437899Y-288768D01*
X-438237Y-288509D01*
X-438539Y-288207D01*
X-438798Y-287869D01*
X-439011Y-287501D01*
X-439174Y-287107D01*
X-439284Y-286695D01*
X-439340Y-286273D01*
X-439340Y-285847D01*
X-439284Y-285425D01*
X-439174Y-285013D01*
X-439011Y-284619D01*
X-438798Y-284251D01*
X-438539Y-283913D01*
X-438237Y-283611D01*
X-437899Y-283352D01*
X-437531Y-283139D01*
X-437137Y-282976D01*
X-436725Y-282866D01*
X-436303Y-282810D01*
X-435877Y-282810D01*
X-435455Y-282866D01*
X-435043Y-282976D01*
X-434649Y-283139D01*
X-434281Y-283352D01*
X-433943Y-283611D01*
X-433641Y-283913D01*
X-433382Y-284251D01*
X-433169Y-284619D01*
X-433006Y-285013D01*
X-432896Y-285425D01*
X-432840Y-285847D01*
X-432840Y-286273D01*
X-432896Y-286695D01*
X-433006Y-287107D01*
X-433169Y-287501D01*
X-433382Y-287869D01*
X-433641Y-288207D01*
X-433943Y-288509D01*
X-434281Y-288768D01*
X-434649Y-288981D01*
X-435043Y-289144D01*
X-435455Y-289254D01*
X-435877Y-289310D01*
X-436303Y-289310D01*
X-436303Y-347110D02*
X-436725Y-347054D01*
X-437137Y-346944D01*
X-437531Y-346781D01*
X-437899Y-346568D01*
X-438237Y-346309D01*
X-438539Y-346007D01*
X-438798Y-345669D01*
X-439011Y-345301D01*
X-439174Y-344907D01*
X-439284Y-344495D01*
X-439340Y-344073D01*
X-439340Y-343647D01*
X-439284Y-343225D01*
X-439174Y-342813D01*
X-439011Y-342419D01*
X-438798Y-342051D01*
X-438539Y-341713D01*
X-438237Y-341411D01*
X-437899Y-341152D01*
X-437531Y-340939D01*
X-437137Y-340776D01*
X-436725Y-340666D01*
X-436303Y-340610D01*
X-435877Y-340610D01*
X-435455Y-340666D01*
X-435043Y-340776D01*
X-434649Y-340939D01*
X-434281Y-341152D01*
X-433943Y-341411D01*
X-433641Y-341713D01*
X-433382Y-342051D01*
X-433169Y-342419D01*
X-433006Y-342813D01*
X-432896Y-343225D01*
X-432840Y-343647D01*
X-432840Y-344073D01*
X-432896Y-344495D01*
X-433006Y-344907D01*
X-433169Y-345301D01*
X-433382Y-345669D01*
X-433641Y-346007D01*
X-433943Y-346309D01*
X-434281Y-346568D01*
X-434649Y-346781D01*
X-435043Y-346944D01*
X-435455Y-347054D01*
X-435877Y-347110D01*
X-436303Y-347110D01*
M02*
