G04 EAGLE Gerber RS-274X export*
G75*
%MOMM*%
%FSLAX34Y34*%
%LPD*%
%INGTS*%
%IPPOS*%
%AMOC8*
5,1,8,0,0,1.08239X$1,22.5*%
G01*
%ADD10C,0.723900*%
%ADD11R,2.095500X1.524000*%
%ADD12R,0.320800X1.550800*%
%ADD13R,1.550800X0.320800*%
%ADD14R,1.450800X1.250800*%
%ADD15R,1.050800X1.150800*%
%ADD16R,1.150800X1.050800*%
%ADD17R,1.650800X1.450800*%
%ADD18R,1.574800X0.812800*%
%ADD19R,1.250800X1.250800*%
%ADD20C,2.209800*%
%ADD21C,1.358800*%
%ADD22C,1.650800*%
%ADD23R,1.930400X1.930400*%
%ADD24C,1.930400*%
%ADD25R,0.476800X1.700800*%
%ADD26R,4.370800X3.050800*%
%ADD27R,1.850800X1.650800*%
%ADD28R,0.355600X1.041400*%
%ADD29C,1.828800*%
%ADD30C,0.191863*%
%ADD31R,1.828800X1.828800*%
%ADD32R,1.450800X1.650800*%
%ADD33R,0.600800X1.250800*%
%ADD34R,1.270000X2.286000*%
%ADD35R,3.650800X2.250800*%
%ADD36C,1.574800*%
%ADD37R,3.850800X1.450800*%
%ADD38R,2.200800X1.000800*%
%ADD39R,2.200800X3.200800*%
%ADD40C,0.560253*%
%ADD41C,2.184400*%
%ADD42C,1.473200*%
%ADD43R,1.450800X3.850800*%
%ADD44R,1.450800X1.850800*%
%ADD45R,1.950800X1.450800*%
%ADD46R,1.550800X0.850800*%
%ADD47R,1.574800X1.574800*%
%ADD48C,1.574800*%
%ADD49C,2.527300*%
%ADD50C,3.606800*%
%ADD51R,1.320800X0.685800*%
%ADD52R,2.250800X0.650800*%
%ADD53C,2.250800*%
%ADD54R,1.050000X1.575000*%
%ADD55C,2.300800*%
%ADD56R,6.250800X5.450800*%
%ADD57R,1.650800X1.050800*%
%ADD58R,2.450800X2.450800*%
%ADD59R,0.685800X1.320800*%
%ADD60R,1.450800X3.050800*%
%ADD61R,1.050800X0.330800*%
%ADD62R,1.050800X0.610800*%
%ADD63C,0.700800*%
%ADD64C,5.850800*%
%ADD65C,1.158800*%
%ADD66C,0.414550*%
%ADD67R,1.066800X0.685800*%
%ADD68R,1.650800X1.550800*%
%ADD69R,1.550800X3.750800*%
%ADD70R,1.650800X1.850800*%
%ADD71C,0.302938*%
%ADD72C,1.249906*%
%ADD73R,2.550800X3.250800*%
%ADD74C,1.050800*%

G36*
X-424836Y-277806D02*
X-424836Y-277806D01*
X-424833Y-277809D01*
X-423711Y-277654D01*
X-423706Y-277649D01*
X-423702Y-277652D01*
X-422631Y-277281D01*
X-422627Y-277275D01*
X-422622Y-277277D01*
X-421645Y-276704D01*
X-421642Y-276698D01*
X-421637Y-276699D01*
X-420790Y-275946D01*
X-420788Y-275939D01*
X-420783Y-275939D01*
X-420099Y-275036D01*
X-420099Y-275029D01*
X-420094Y-275028D01*
X-419599Y-274009D01*
X-419601Y-274002D01*
X-419596Y-274000D01*
X-419309Y-272903D01*
X-419311Y-272899D01*
X-419309Y-272898D01*
X-419311Y-272896D01*
X-419308Y-272894D01*
X-419241Y-271763D01*
X-419243Y-271759D01*
X-419241Y-271757D01*
X-419308Y-270626D01*
X-419313Y-270621D01*
X-419309Y-270617D01*
X-419596Y-269520D01*
X-419602Y-269516D01*
X-419599Y-269511D01*
X-420094Y-268492D01*
X-420100Y-268489D01*
X-420099Y-268484D01*
X-420783Y-267581D01*
X-420790Y-267579D01*
X-420790Y-267574D01*
X-421637Y-266821D01*
X-421644Y-266821D01*
X-421645Y-266816D01*
X-422622Y-266243D01*
X-422629Y-266244D01*
X-422631Y-266239D01*
X-423702Y-265868D01*
X-423708Y-265871D01*
X-423711Y-265866D01*
X-424833Y-265711D01*
X-424838Y-265714D01*
X-424840Y-265711D01*
X-436840Y-265711D01*
X-436845Y-265714D01*
X-436848Y-265711D01*
X-438115Y-265916D01*
X-438121Y-265922D01*
X-438126Y-265919D01*
X-439315Y-266401D01*
X-439319Y-266408D01*
X-439325Y-266406D01*
X-440378Y-267140D01*
X-440380Y-267148D01*
X-440386Y-267147D01*
X-441249Y-268097D01*
X-441250Y-268106D01*
X-441255Y-268106D01*
X-441885Y-269225D01*
X-441884Y-269233D01*
X-441890Y-269235D01*
X-442255Y-270465D01*
X-442252Y-270473D01*
X-442257Y-270476D01*
X-442339Y-271757D01*
X-442337Y-271761D01*
X-442339Y-271763D01*
X-442257Y-273044D01*
X-442251Y-273050D01*
X-442255Y-273055D01*
X-441890Y-274285D01*
X-441883Y-274290D01*
X-441885Y-274295D01*
X-441255Y-275414D01*
X-441248Y-275417D01*
X-441249Y-275423D01*
X-440386Y-276373D01*
X-440378Y-276374D01*
X-440378Y-276380D01*
X-439325Y-277114D01*
X-439317Y-277114D01*
X-439315Y-277119D01*
X-438126Y-277601D01*
X-438118Y-277599D01*
X-438115Y-277604D01*
X-436848Y-277809D01*
X-436843Y-277806D01*
X-436840Y-277809D01*
X-424840Y-277809D01*
X-424836Y-277806D01*
G37*
G36*
X-424836Y-364206D02*
X-424836Y-364206D01*
X-424833Y-364209D01*
X-423711Y-364054D01*
X-423706Y-364049D01*
X-423702Y-364052D01*
X-422631Y-363681D01*
X-422627Y-363675D01*
X-422622Y-363677D01*
X-421645Y-363104D01*
X-421642Y-363098D01*
X-421637Y-363099D01*
X-420790Y-362346D01*
X-420788Y-362339D01*
X-420783Y-362339D01*
X-420099Y-361436D01*
X-420099Y-361429D01*
X-420094Y-361428D01*
X-419599Y-360409D01*
X-419601Y-360402D01*
X-419596Y-360400D01*
X-419309Y-359303D01*
X-419311Y-359299D01*
X-419309Y-359298D01*
X-419311Y-359296D01*
X-419308Y-359294D01*
X-419241Y-358163D01*
X-419243Y-358159D01*
X-419241Y-358157D01*
X-419308Y-357026D01*
X-419313Y-357021D01*
X-419309Y-357017D01*
X-419596Y-355920D01*
X-419602Y-355916D01*
X-419599Y-355911D01*
X-420094Y-354892D01*
X-420100Y-354889D01*
X-420099Y-354884D01*
X-420783Y-353981D01*
X-420790Y-353979D01*
X-420790Y-353974D01*
X-421637Y-353221D01*
X-421644Y-353221D01*
X-421645Y-353216D01*
X-422622Y-352643D01*
X-422629Y-352644D01*
X-422631Y-352639D01*
X-423702Y-352268D01*
X-423708Y-352271D01*
X-423711Y-352266D01*
X-424833Y-352111D01*
X-424838Y-352114D01*
X-424840Y-352111D01*
X-436840Y-352111D01*
X-436845Y-352114D01*
X-436848Y-352111D01*
X-438115Y-352316D01*
X-438121Y-352322D01*
X-438126Y-352319D01*
X-439315Y-352801D01*
X-439319Y-352808D01*
X-439325Y-352806D01*
X-440378Y-353540D01*
X-440380Y-353548D01*
X-440386Y-353547D01*
X-441249Y-354497D01*
X-441250Y-354506D01*
X-441255Y-354506D01*
X-441885Y-355625D01*
X-441884Y-355633D01*
X-441890Y-355635D01*
X-442255Y-356865D01*
X-442252Y-356873D01*
X-442257Y-356876D01*
X-442339Y-358157D01*
X-442337Y-358161D01*
X-442339Y-358163D01*
X-442257Y-359444D01*
X-442251Y-359450D01*
X-442255Y-359455D01*
X-441890Y-360685D01*
X-441883Y-360690D01*
X-441885Y-360695D01*
X-441255Y-361814D01*
X-441248Y-361817D01*
X-441249Y-361823D01*
X-440386Y-362773D01*
X-440378Y-362774D01*
X-440378Y-362780D01*
X-439325Y-363514D01*
X-439317Y-363514D01*
X-439315Y-363519D01*
X-438126Y-364001D01*
X-438118Y-363999D01*
X-438115Y-364004D01*
X-436848Y-364209D01*
X-436843Y-364206D01*
X-436840Y-364209D01*
X-424840Y-364209D01*
X-424836Y-364206D01*
G37*
G36*
X-469637Y-277807D02*
X-469637Y-277807D01*
X-469635Y-277809D01*
X-468459Y-277698D01*
X-468454Y-277693D01*
X-468450Y-277696D01*
X-467318Y-277358D01*
X-467314Y-277352D01*
X-467309Y-277354D01*
X-466265Y-276802D01*
X-466262Y-276795D01*
X-466257Y-276797D01*
X-465341Y-276051D01*
X-465340Y-276044D01*
X-465334Y-276044D01*
X-464581Y-275135D01*
X-464581Y-275127D01*
X-464576Y-275127D01*
X-464015Y-274087D01*
X-464016Y-274082D01*
X-464012Y-274080D01*
X-464013Y-274079D01*
X-464011Y-274078D01*
X-463664Y-272949D01*
X-463664Y-272948D01*
X-463663Y-272947D01*
X-463666Y-272943D01*
X-463662Y-272940D01*
X-463541Y-271765D01*
X-463545Y-271758D01*
X-463541Y-271754D01*
X-463698Y-270414D01*
X-463703Y-270408D01*
X-463700Y-270403D01*
X-464151Y-269132D01*
X-464158Y-269127D01*
X-464156Y-269122D01*
X-464878Y-267983D01*
X-464886Y-267980D01*
X-464885Y-267974D01*
X-465843Y-267024D01*
X-465851Y-267023D01*
X-465852Y-267017D01*
X-466997Y-266304D01*
X-467006Y-266305D01*
X-467007Y-266299D01*
X-468283Y-265859D01*
X-468290Y-265861D01*
X-468293Y-265857D01*
X-469635Y-265711D01*
X-469638Y-265713D01*
X-469640Y-265711D01*
X-475640Y-265711D01*
X-475644Y-265713D01*
X-475646Y-265711D01*
X-476975Y-265866D01*
X-476981Y-265872D01*
X-476985Y-265869D01*
X-478246Y-266316D01*
X-478251Y-266323D01*
X-478256Y-266321D01*
X-479386Y-267038D01*
X-479389Y-267045D01*
X-479395Y-267044D01*
X-480337Y-267995D01*
X-480338Y-268003D01*
X-480344Y-268003D01*
X-481051Y-269139D01*
X-481050Y-269147D01*
X-481056Y-269149D01*
X-481492Y-270414D01*
X-481490Y-270422D01*
X-481495Y-270425D01*
X-481639Y-271755D01*
X-481635Y-271761D01*
X-481639Y-271765D01*
X-481529Y-272931D01*
X-481524Y-272936D01*
X-481527Y-272940D01*
X-481192Y-274063D01*
X-481186Y-274067D01*
X-481188Y-274071D01*
X-480640Y-275107D01*
X-480634Y-275110D01*
X-480635Y-275115D01*
X-479896Y-276023D01*
X-479889Y-276025D01*
X-479889Y-276030D01*
X-478987Y-276777D01*
X-478980Y-276777D01*
X-478979Y-276783D01*
X-477948Y-277339D01*
X-477941Y-277338D01*
X-477939Y-277343D01*
X-476820Y-277687D01*
X-476813Y-277685D01*
X-476810Y-277689D01*
X-475645Y-277809D01*
X-475642Y-277807D01*
X-475640Y-277809D01*
X-469640Y-277809D01*
X-469637Y-277807D01*
G37*
G36*
X-469637Y-364207D02*
X-469637Y-364207D01*
X-469635Y-364209D01*
X-468459Y-364098D01*
X-468454Y-364093D01*
X-468450Y-364096D01*
X-467318Y-363758D01*
X-467314Y-363752D01*
X-467309Y-363754D01*
X-466265Y-363202D01*
X-466262Y-363195D01*
X-466257Y-363197D01*
X-465341Y-362451D01*
X-465340Y-362444D01*
X-465334Y-362444D01*
X-464581Y-361535D01*
X-464581Y-361527D01*
X-464576Y-361527D01*
X-464015Y-360487D01*
X-464016Y-360482D01*
X-464012Y-360480D01*
X-464013Y-360479D01*
X-464011Y-360478D01*
X-463664Y-359349D01*
X-463664Y-359348D01*
X-463663Y-359347D01*
X-463666Y-359343D01*
X-463662Y-359340D01*
X-463541Y-358165D01*
X-463545Y-358158D01*
X-463541Y-358154D01*
X-463698Y-356814D01*
X-463703Y-356808D01*
X-463700Y-356803D01*
X-464151Y-355532D01*
X-464158Y-355527D01*
X-464156Y-355522D01*
X-464878Y-354383D01*
X-464886Y-354380D01*
X-464885Y-354374D01*
X-465843Y-353424D01*
X-465851Y-353423D01*
X-465852Y-353417D01*
X-466997Y-352704D01*
X-467006Y-352705D01*
X-467007Y-352699D01*
X-468283Y-352259D01*
X-468290Y-352261D01*
X-468293Y-352257D01*
X-469635Y-352111D01*
X-469638Y-352113D01*
X-469640Y-352111D01*
X-475640Y-352111D01*
X-475644Y-352113D01*
X-475646Y-352111D01*
X-476975Y-352266D01*
X-476981Y-352272D01*
X-476985Y-352269D01*
X-478246Y-352716D01*
X-478251Y-352723D01*
X-478256Y-352721D01*
X-479386Y-353438D01*
X-479389Y-353445D01*
X-479395Y-353444D01*
X-480337Y-354395D01*
X-480338Y-354403D01*
X-480344Y-354403D01*
X-481051Y-355539D01*
X-481050Y-355547D01*
X-481056Y-355549D01*
X-481492Y-356814D01*
X-481490Y-356822D01*
X-481495Y-356825D01*
X-481639Y-358155D01*
X-481635Y-358161D01*
X-481639Y-358165D01*
X-481529Y-359331D01*
X-481524Y-359336D01*
X-481527Y-359340D01*
X-481192Y-360463D01*
X-481186Y-360467D01*
X-481188Y-360471D01*
X-480640Y-361507D01*
X-480634Y-361510D01*
X-480635Y-361515D01*
X-479896Y-362423D01*
X-479889Y-362425D01*
X-479889Y-362430D01*
X-478987Y-363177D01*
X-478980Y-363177D01*
X-478979Y-363183D01*
X-477948Y-363739D01*
X-477941Y-363738D01*
X-477939Y-363743D01*
X-476820Y-364087D01*
X-476813Y-364085D01*
X-476810Y-364089D01*
X-475645Y-364209D01*
X-475642Y-364207D01*
X-475640Y-364209D01*
X-469640Y-364209D01*
X-469637Y-364207D01*
G37*
D10*
X-118745Y-133985D02*
X-112395Y-127635D01*
X-112395Y-140335D02*
X-118745Y-146685D01*
X-112395Y-153035D02*
X-118745Y-159385D01*
X-112395Y-165735D02*
X-106045Y-159385D01*
X-99695Y-165735D02*
X-106045Y-172085D01*
X-99695Y-178435D02*
X-93345Y-172085D01*
D11*
X308928Y100330D03*
D12*
G36*
X8026Y-33850D02*
X5757Y-31581D01*
X16722Y-20616D01*
X18991Y-22885D01*
X8026Y-33850D01*
G37*
G36*
X11562Y-37385D02*
X9293Y-35116D01*
X20258Y-24151D01*
X22527Y-26420D01*
X11562Y-37385D01*
G37*
G36*
X15097Y-40921D02*
X12828Y-38652D01*
X23793Y-27687D01*
X26062Y-29956D01*
X15097Y-40921D01*
G37*
G36*
X18633Y-44456D02*
X16364Y-42187D01*
X27329Y-31222D01*
X29598Y-33491D01*
X18633Y-44456D01*
G37*
G36*
X22169Y-47992D02*
X19900Y-45723D01*
X30865Y-34758D01*
X33134Y-37027D01*
X22169Y-47992D01*
G37*
G36*
X25704Y-51527D02*
X23435Y-49258D01*
X34400Y-38293D01*
X36669Y-40562D01*
X25704Y-51527D01*
G37*
G36*
X29240Y-55063D02*
X26971Y-52794D01*
X37936Y-41829D01*
X40205Y-44098D01*
X29240Y-55063D01*
G37*
G36*
X32775Y-58599D02*
X30506Y-56330D01*
X41471Y-45365D01*
X43740Y-47634D01*
X32775Y-58599D01*
G37*
G36*
X36311Y-62134D02*
X34042Y-59865D01*
X45007Y-48900D01*
X47276Y-51169D01*
X36311Y-62134D01*
G37*
G36*
X39846Y-65670D02*
X37577Y-63401D01*
X48542Y-52436D01*
X50811Y-54705D01*
X39846Y-65670D01*
G37*
G36*
X43382Y-69205D02*
X41113Y-66936D01*
X52078Y-55971D01*
X54347Y-58240D01*
X43382Y-69205D01*
G37*
G36*
X46917Y-72741D02*
X44648Y-70472D01*
X55613Y-59507D01*
X57882Y-61776D01*
X46917Y-72741D01*
G37*
G36*
X50453Y-76276D02*
X48184Y-74007D01*
X59149Y-63042D01*
X61418Y-65311D01*
X50453Y-76276D01*
G37*
G36*
X53988Y-79812D02*
X51719Y-77543D01*
X62684Y-66578D01*
X64953Y-68847D01*
X53988Y-79812D01*
G37*
G36*
X57524Y-83347D02*
X55255Y-81078D01*
X66220Y-70113D01*
X68489Y-72382D01*
X57524Y-83347D01*
G37*
G36*
X61059Y-86883D02*
X58790Y-84614D01*
X69755Y-73649D01*
X72024Y-75918D01*
X61059Y-86883D01*
G37*
G36*
X64595Y-90418D02*
X62326Y-88149D01*
X73291Y-77184D01*
X75560Y-79453D01*
X64595Y-90418D01*
G37*
G36*
X68130Y-93954D02*
X65861Y-91685D01*
X76826Y-80720D01*
X79095Y-82989D01*
X68130Y-93954D01*
G37*
G36*
X71666Y-97489D02*
X69397Y-95220D01*
X80362Y-84255D01*
X82631Y-86524D01*
X71666Y-97489D01*
G37*
G36*
X75202Y-101025D02*
X72933Y-98756D01*
X83898Y-87791D01*
X86167Y-90060D01*
X75202Y-101025D01*
G37*
G36*
X78737Y-104560D02*
X76468Y-102291D01*
X87433Y-91326D01*
X89702Y-93595D01*
X78737Y-104560D01*
G37*
G36*
X82273Y-108096D02*
X80004Y-105827D01*
X90969Y-94862D01*
X93238Y-97131D01*
X82273Y-108096D01*
G37*
G36*
X85808Y-111632D02*
X83539Y-109363D01*
X94504Y-98398D01*
X96773Y-100667D01*
X85808Y-111632D01*
G37*
G36*
X89344Y-115167D02*
X87075Y-112898D01*
X98040Y-101933D01*
X100309Y-104202D01*
X89344Y-115167D01*
G37*
G36*
X92879Y-118703D02*
X90610Y-116434D01*
X101575Y-105469D01*
X103844Y-107738D01*
X92879Y-118703D01*
G37*
G36*
X-101575Y-143451D02*
X-103844Y-141182D01*
X-92879Y-130217D01*
X-90610Y-132486D01*
X-101575Y-143451D01*
G37*
G36*
X-98040Y-146987D02*
X-100309Y-144718D01*
X-89344Y-133753D01*
X-87075Y-136022D01*
X-98040Y-146987D01*
G37*
G36*
X-94504Y-150522D02*
X-96773Y-148253D01*
X-85808Y-137288D01*
X-83539Y-139557D01*
X-94504Y-150522D01*
G37*
G36*
X-90969Y-154058D02*
X-93238Y-151789D01*
X-82273Y-140824D01*
X-80004Y-143093D01*
X-90969Y-154058D01*
G37*
G36*
X-87433Y-157594D02*
X-89702Y-155325D01*
X-78737Y-144360D01*
X-76468Y-146629D01*
X-87433Y-157594D01*
G37*
G36*
X-83898Y-161129D02*
X-86167Y-158860D01*
X-75202Y-147895D01*
X-72933Y-150164D01*
X-83898Y-161129D01*
G37*
G36*
X-80362Y-164665D02*
X-82631Y-162396D01*
X-71666Y-151431D01*
X-69397Y-153700D01*
X-80362Y-164665D01*
G37*
G36*
X-76826Y-168200D02*
X-79095Y-165931D01*
X-68130Y-154966D01*
X-65861Y-157235D01*
X-76826Y-168200D01*
G37*
G36*
X-73291Y-171736D02*
X-75560Y-169467D01*
X-64595Y-158502D01*
X-62326Y-160771D01*
X-73291Y-171736D01*
G37*
G36*
X-69755Y-175271D02*
X-72024Y-173002D01*
X-61059Y-162037D01*
X-58790Y-164306D01*
X-69755Y-175271D01*
G37*
G36*
X-66220Y-178807D02*
X-68489Y-176538D01*
X-57524Y-165573D01*
X-55255Y-167842D01*
X-66220Y-178807D01*
G37*
G36*
X-62684Y-182342D02*
X-64953Y-180073D01*
X-53988Y-169108D01*
X-51719Y-171377D01*
X-62684Y-182342D01*
G37*
G36*
X-59149Y-185878D02*
X-61418Y-183609D01*
X-50453Y-172644D01*
X-48184Y-174913D01*
X-59149Y-185878D01*
G37*
G36*
X-55613Y-189413D02*
X-57882Y-187144D01*
X-46917Y-176179D01*
X-44648Y-178448D01*
X-55613Y-189413D01*
G37*
G36*
X-52078Y-192949D02*
X-54347Y-190680D01*
X-43382Y-179715D01*
X-41113Y-181984D01*
X-52078Y-192949D01*
G37*
G36*
X-48542Y-196484D02*
X-50811Y-194215D01*
X-39846Y-183250D01*
X-37577Y-185519D01*
X-48542Y-196484D01*
G37*
G36*
X-45007Y-200020D02*
X-47276Y-197751D01*
X-36311Y-186786D01*
X-34042Y-189055D01*
X-45007Y-200020D01*
G37*
G36*
X-41471Y-203555D02*
X-43740Y-201286D01*
X-32775Y-190321D01*
X-30506Y-192590D01*
X-41471Y-203555D01*
G37*
G36*
X-37936Y-207091D02*
X-40205Y-204822D01*
X-29240Y-193857D01*
X-26971Y-196126D01*
X-37936Y-207091D01*
G37*
G36*
X-34400Y-210627D02*
X-36669Y-208358D01*
X-25704Y-197393D01*
X-23435Y-199662D01*
X-34400Y-210627D01*
G37*
G36*
X-30865Y-214162D02*
X-33134Y-211893D01*
X-22169Y-200928D01*
X-19900Y-203197D01*
X-30865Y-214162D01*
G37*
G36*
X-27329Y-217698D02*
X-29598Y-215429D01*
X-18633Y-204464D01*
X-16364Y-206733D01*
X-27329Y-217698D01*
G37*
G36*
X-23793Y-221233D02*
X-26062Y-218964D01*
X-15097Y-207999D01*
X-12828Y-210268D01*
X-23793Y-221233D01*
G37*
G36*
X-20258Y-224769D02*
X-22527Y-222500D01*
X-11562Y-211535D01*
X-9293Y-213804D01*
X-20258Y-224769D01*
G37*
G36*
X-16722Y-228304D02*
X-18991Y-226035D01*
X-8026Y-215070D01*
X-5757Y-217339D01*
X-16722Y-228304D01*
G37*
D13*
G36*
X16722Y-228304D02*
X5757Y-217339D01*
X8026Y-215070D01*
X18991Y-226035D01*
X16722Y-228304D01*
G37*
G36*
X20258Y-224769D02*
X9293Y-213804D01*
X11562Y-211535D01*
X22527Y-222500D01*
X20258Y-224769D01*
G37*
G36*
X23793Y-221233D02*
X12828Y-210268D01*
X15097Y-207999D01*
X26062Y-218964D01*
X23793Y-221233D01*
G37*
G36*
X27329Y-217698D02*
X16364Y-206733D01*
X18633Y-204464D01*
X29598Y-215429D01*
X27329Y-217698D01*
G37*
G36*
X30865Y-214162D02*
X19900Y-203197D01*
X22169Y-200928D01*
X33134Y-211893D01*
X30865Y-214162D01*
G37*
G36*
X34400Y-210627D02*
X23435Y-199662D01*
X25704Y-197393D01*
X36669Y-208358D01*
X34400Y-210627D01*
G37*
G36*
X37936Y-207091D02*
X26971Y-196126D01*
X29240Y-193857D01*
X40205Y-204822D01*
X37936Y-207091D01*
G37*
G36*
X41471Y-203555D02*
X30506Y-192590D01*
X32775Y-190321D01*
X43740Y-201286D01*
X41471Y-203555D01*
G37*
G36*
X45007Y-200020D02*
X34042Y-189055D01*
X36311Y-186786D01*
X47276Y-197751D01*
X45007Y-200020D01*
G37*
G36*
X48542Y-196484D02*
X37577Y-185519D01*
X39846Y-183250D01*
X50811Y-194215D01*
X48542Y-196484D01*
G37*
G36*
X52078Y-192949D02*
X41113Y-181984D01*
X43382Y-179715D01*
X54347Y-190680D01*
X52078Y-192949D01*
G37*
G36*
X55613Y-189413D02*
X44648Y-178448D01*
X46917Y-176179D01*
X57882Y-187144D01*
X55613Y-189413D01*
G37*
G36*
X59149Y-185878D02*
X48184Y-174913D01*
X50453Y-172644D01*
X61418Y-183609D01*
X59149Y-185878D01*
G37*
G36*
X62684Y-182342D02*
X51719Y-171377D01*
X53988Y-169108D01*
X64953Y-180073D01*
X62684Y-182342D01*
G37*
G36*
X66220Y-178807D02*
X55255Y-167842D01*
X57524Y-165573D01*
X68489Y-176538D01*
X66220Y-178807D01*
G37*
G36*
X69755Y-175271D02*
X58790Y-164306D01*
X61059Y-162037D01*
X72024Y-173002D01*
X69755Y-175271D01*
G37*
G36*
X73291Y-171736D02*
X62326Y-160771D01*
X64595Y-158502D01*
X75560Y-169467D01*
X73291Y-171736D01*
G37*
G36*
X76826Y-168200D02*
X65861Y-157235D01*
X68130Y-154966D01*
X79095Y-165931D01*
X76826Y-168200D01*
G37*
G36*
X80362Y-164665D02*
X69397Y-153700D01*
X71666Y-151431D01*
X82631Y-162396D01*
X80362Y-164665D01*
G37*
G36*
X83898Y-161129D02*
X72933Y-150164D01*
X75202Y-147895D01*
X86167Y-158860D01*
X83898Y-161129D01*
G37*
G36*
X87433Y-157594D02*
X76468Y-146629D01*
X78737Y-144360D01*
X89702Y-155325D01*
X87433Y-157594D01*
G37*
G36*
X90969Y-154058D02*
X80004Y-143093D01*
X82273Y-140824D01*
X93238Y-151789D01*
X90969Y-154058D01*
G37*
G36*
X94504Y-150522D02*
X83539Y-139557D01*
X85808Y-137288D01*
X96773Y-148253D01*
X94504Y-150522D01*
G37*
G36*
X98040Y-146987D02*
X87075Y-136022D01*
X89344Y-133753D01*
X100309Y-144718D01*
X98040Y-146987D01*
G37*
G36*
X101575Y-143451D02*
X90610Y-132486D01*
X92879Y-130217D01*
X103844Y-141182D01*
X101575Y-143451D01*
G37*
G36*
X-8026Y-33850D02*
X-18991Y-22885D01*
X-16722Y-20616D01*
X-5757Y-31581D01*
X-8026Y-33850D01*
G37*
G36*
X-11562Y-37385D02*
X-22527Y-26420D01*
X-20258Y-24151D01*
X-9293Y-35116D01*
X-11562Y-37385D01*
G37*
G36*
X-15097Y-40921D02*
X-26062Y-29956D01*
X-23793Y-27687D01*
X-12828Y-38652D01*
X-15097Y-40921D01*
G37*
G36*
X-18633Y-44456D02*
X-29598Y-33491D01*
X-27329Y-31222D01*
X-16364Y-42187D01*
X-18633Y-44456D01*
G37*
G36*
X-22169Y-47992D02*
X-33134Y-37027D01*
X-30865Y-34758D01*
X-19900Y-45723D01*
X-22169Y-47992D01*
G37*
G36*
X-25704Y-51527D02*
X-36669Y-40562D01*
X-34400Y-38293D01*
X-23435Y-49258D01*
X-25704Y-51527D01*
G37*
G36*
X-29240Y-55063D02*
X-40205Y-44098D01*
X-37936Y-41829D01*
X-26971Y-52794D01*
X-29240Y-55063D01*
G37*
G36*
X-32775Y-58599D02*
X-43740Y-47634D01*
X-41471Y-45365D01*
X-30506Y-56330D01*
X-32775Y-58599D01*
G37*
G36*
X-36311Y-62134D02*
X-47276Y-51169D01*
X-45007Y-48900D01*
X-34042Y-59865D01*
X-36311Y-62134D01*
G37*
G36*
X-39846Y-65670D02*
X-50811Y-54705D01*
X-48542Y-52436D01*
X-37577Y-63401D01*
X-39846Y-65670D01*
G37*
G36*
X-43382Y-69205D02*
X-54347Y-58240D01*
X-52078Y-55971D01*
X-41113Y-66936D01*
X-43382Y-69205D01*
G37*
G36*
X-46917Y-72741D02*
X-57882Y-61776D01*
X-55613Y-59507D01*
X-44648Y-70472D01*
X-46917Y-72741D01*
G37*
G36*
X-50453Y-76276D02*
X-61418Y-65311D01*
X-59149Y-63042D01*
X-48184Y-74007D01*
X-50453Y-76276D01*
G37*
G36*
X-53988Y-79812D02*
X-64953Y-68847D01*
X-62684Y-66578D01*
X-51719Y-77543D01*
X-53988Y-79812D01*
G37*
G36*
X-57524Y-83347D02*
X-68489Y-72382D01*
X-66220Y-70113D01*
X-55255Y-81078D01*
X-57524Y-83347D01*
G37*
G36*
X-61059Y-86883D02*
X-72024Y-75918D01*
X-69755Y-73649D01*
X-58790Y-84614D01*
X-61059Y-86883D01*
G37*
G36*
X-64595Y-90418D02*
X-75560Y-79453D01*
X-73291Y-77184D01*
X-62326Y-88149D01*
X-64595Y-90418D01*
G37*
G36*
X-68130Y-93954D02*
X-79095Y-82989D01*
X-76826Y-80720D01*
X-65861Y-91685D01*
X-68130Y-93954D01*
G37*
G36*
X-71666Y-97489D02*
X-82631Y-86524D01*
X-80362Y-84255D01*
X-69397Y-95220D01*
X-71666Y-97489D01*
G37*
G36*
X-75202Y-101025D02*
X-86167Y-90060D01*
X-83898Y-87791D01*
X-72933Y-98756D01*
X-75202Y-101025D01*
G37*
G36*
X-78737Y-104560D02*
X-89702Y-93595D01*
X-87433Y-91326D01*
X-76468Y-102291D01*
X-78737Y-104560D01*
G37*
G36*
X-82273Y-108096D02*
X-93238Y-97131D01*
X-90969Y-94862D01*
X-80004Y-105827D01*
X-82273Y-108096D01*
G37*
G36*
X-85808Y-111632D02*
X-96773Y-100667D01*
X-94504Y-98398D01*
X-83539Y-109363D01*
X-85808Y-111632D01*
G37*
G36*
X-89344Y-115167D02*
X-100309Y-104202D01*
X-98040Y-101933D01*
X-87075Y-112898D01*
X-89344Y-115167D01*
G37*
G36*
X-92879Y-118703D02*
X-103844Y-107738D01*
X-101575Y-105469D01*
X-90610Y-116434D01*
X-92879Y-118703D01*
G37*
D14*
X-34720Y-259460D03*
X-56720Y-259460D03*
X-34720Y-243460D03*
X-56720Y-243460D03*
D15*
X-76200Y-259960D03*
X-76200Y-242960D03*
X-15240Y-242960D03*
X-15240Y-259960D03*
D16*
G36*
X130307Y-85783D02*
X138443Y-77647D01*
X145873Y-85077D01*
X137737Y-93213D01*
X130307Y-85783D01*
G37*
G36*
X118287Y-97803D02*
X126423Y-89667D01*
X133853Y-97097D01*
X125717Y-105233D01*
X118287Y-97803D01*
G37*
D15*
X104140Y-201540D03*
X104140Y-184540D03*
D16*
G36*
X58997Y-231907D02*
X67133Y-240043D01*
X59703Y-247473D01*
X51567Y-239337D01*
X58997Y-231907D01*
G37*
G36*
X46977Y-219887D02*
X55113Y-228023D01*
X47683Y-235453D01*
X39547Y-227317D01*
X46977Y-219887D01*
G37*
G36*
X-117417Y-75433D02*
X-125553Y-67297D01*
X-118123Y-59867D01*
X-109987Y-68003D01*
X-117417Y-75433D01*
G37*
G36*
X-105397Y-87453D02*
X-113533Y-79317D01*
X-106103Y-71887D01*
X-97967Y-80023D01*
X-105397Y-87453D01*
G37*
G36*
X-70427Y-28443D02*
X-78563Y-20307D01*
X-71133Y-12877D01*
X-62997Y-21013D01*
X-70427Y-28443D01*
G37*
G36*
X-58407Y-40463D02*
X-66543Y-32327D01*
X-59113Y-24897D01*
X-50977Y-33033D01*
X-58407Y-40463D01*
G37*
D15*
X-91440Y-259960D03*
X-91440Y-242960D03*
D17*
X-140970Y-153640D03*
X-140970Y-181640D03*
D15*
X-76200Y-204860D03*
X-76200Y-221860D03*
X-44450Y-397120D03*
X-44450Y-380120D03*
D16*
X-313300Y-304800D03*
X-296300Y-304800D03*
X-313300Y-289560D03*
X-296300Y-289560D03*
X-313300Y-274320D03*
X-296300Y-274320D03*
X-296300Y-320040D03*
X-313300Y-320040D03*
D15*
X-292100Y-37220D03*
X-292100Y-54220D03*
X-44450Y-319160D03*
X-44450Y-336160D03*
D16*
X82940Y-241300D03*
X99940Y-241300D03*
X118500Y-241300D03*
X135500Y-241300D03*
D18*
X-25400Y-356870D03*
X25400Y-356870D03*
X-25400Y-394970D03*
X25400Y-394970D03*
D19*
X232750Y-210820D03*
X211750Y-210820D03*
X232750Y-193040D03*
X211750Y-193040D03*
X232750Y-175260D03*
X211750Y-175260D03*
X232750Y-157480D03*
X211750Y-157480D03*
D16*
X195190Y-210820D03*
X178190Y-210820D03*
X195190Y-193040D03*
X178190Y-193040D03*
X195190Y-175260D03*
X178190Y-175260D03*
X195190Y-157480D03*
X178190Y-157480D03*
D20*
X-91840Y-298180D03*
X-91840Y-423180D03*
X-141840Y-298180D03*
X-141840Y-423180D03*
D21*
X-49340Y-360680D03*
X-184340Y-360680D03*
D22*
X-71840Y-360680D03*
X-161840Y-360680D03*
D15*
X-200660Y-336160D03*
X-200660Y-319160D03*
X-215900Y-319160D03*
X-215900Y-336160D03*
X-322580Y-54220D03*
X-322580Y-37220D03*
X-322580Y29600D03*
X-322580Y46600D03*
X-307340Y-54220D03*
X-307340Y-37220D03*
D23*
X-368300Y-461010D03*
D24*
X-393700Y-461010D03*
X-419100Y-461010D03*
D23*
X-284480Y-461010D03*
D24*
X-309880Y-461010D03*
X-335280Y-461010D03*
D23*
X-200660Y-461010D03*
D24*
X-226060Y-461010D03*
X-251460Y-461010D03*
D23*
X-116840Y-461010D03*
D24*
X-142240Y-461010D03*
X-167640Y-461010D03*
D23*
X-33020Y-461010D03*
D24*
X-58420Y-461010D03*
X-83820Y-461010D03*
D23*
X50800Y-461010D03*
D24*
X25400Y-461010D03*
X0Y-461010D03*
D18*
X25400Y-339090D03*
X-25400Y-339090D03*
X25400Y-300990D03*
X-25400Y-300990D03*
D16*
G36*
X51567Y-7043D02*
X59703Y1093D01*
X67133Y-6337D01*
X58997Y-14473D01*
X51567Y-7043D01*
G37*
G36*
X39547Y-19063D02*
X47683Y-10927D01*
X55113Y-18357D01*
X46977Y-26493D01*
X39547Y-19063D01*
G37*
D24*
X167640Y-264160D03*
X142240Y-264160D03*
X116840Y-264160D03*
X91440Y-264160D03*
X167640Y-289560D03*
X142240Y-289560D03*
X116840Y-289560D03*
X91440Y-289560D03*
X73660Y-27940D03*
X91621Y-45901D03*
X109581Y-63861D03*
X127000Y-45720D03*
X109039Y-27759D03*
X91079Y-9799D03*
X-25400Y-419100D03*
X0Y-419100D03*
X25400Y-419100D03*
X-129540Y-347980D03*
X-104140Y-347980D03*
X-129540Y-373380D03*
X-104140Y-373380D03*
D17*
X-454660Y273080D03*
X-454660Y245080D03*
X-454660Y222280D03*
X-454660Y194280D03*
X-454660Y171480D03*
X-454660Y143480D03*
D16*
X-39760Y58420D03*
X-56760Y58420D03*
X-92320Y58420D03*
X-75320Y58420D03*
D25*
X-406590Y342920D03*
X-400090Y342920D03*
X-393590Y342920D03*
X-387090Y342920D03*
X-380590Y342920D03*
X-374090Y342920D03*
X-367590Y342920D03*
X-361090Y342920D03*
X-354590Y342920D03*
X-348090Y342920D03*
X-341590Y342920D03*
X-335090Y342920D03*
X-406590Y281920D03*
X-400090Y281920D03*
X-393590Y281920D03*
X-387090Y281920D03*
X-380590Y281920D03*
X-374090Y281920D03*
X-367590Y281920D03*
X-361090Y281920D03*
X-354590Y281920D03*
X-348090Y281920D03*
X-341590Y281920D03*
X-335090Y281920D03*
D26*
X-370840Y312420D03*
D15*
X-431800Y247260D03*
X-431800Y230260D03*
X-416560Y230260D03*
X-416560Y247260D03*
X-325120Y247260D03*
X-325120Y230260D03*
X-370840Y247260D03*
X-370840Y230260D03*
X-401320Y230260D03*
X-401320Y247260D03*
X-340360Y247260D03*
X-340360Y230260D03*
D27*
X-341630Y422940D03*
X-341630Y394940D03*
X-400050Y422940D03*
X-400050Y394940D03*
D25*
X-221170Y342920D03*
X-214670Y342920D03*
X-208170Y342920D03*
X-201670Y342920D03*
X-195170Y342920D03*
X-188670Y342920D03*
X-182170Y342920D03*
X-175670Y342920D03*
X-169170Y342920D03*
X-162670Y342920D03*
X-156170Y342920D03*
X-149670Y342920D03*
X-221170Y281920D03*
X-214670Y281920D03*
X-208170Y281920D03*
X-201670Y281920D03*
X-195170Y281920D03*
X-188670Y281920D03*
X-182170Y281920D03*
X-175670Y281920D03*
X-169170Y281920D03*
X-162670Y281920D03*
X-156170Y281920D03*
X-149670Y281920D03*
D26*
X-185420Y312420D03*
D15*
X-246380Y247260D03*
X-246380Y230260D03*
X-231140Y230260D03*
X-231140Y247260D03*
X-139700Y247260D03*
X-139700Y230260D03*
X-185420Y247260D03*
X-185420Y230260D03*
X-215900Y230260D03*
X-215900Y247260D03*
X-154940Y247260D03*
X-154940Y230260D03*
D27*
X-156210Y422940D03*
X-156210Y394940D03*
X-214630Y422940D03*
X-214630Y394940D03*
D25*
X-35750Y342920D03*
X-29250Y342920D03*
X-22750Y342920D03*
X-16250Y342920D03*
X-9750Y342920D03*
X-3250Y342920D03*
X3250Y342920D03*
X9750Y342920D03*
X16250Y342920D03*
X22750Y342920D03*
X29250Y342920D03*
X35750Y342920D03*
X-35750Y281920D03*
X-29250Y281920D03*
X-22750Y281920D03*
X-16250Y281920D03*
X-9750Y281920D03*
X-3250Y281920D03*
X3250Y281920D03*
X9750Y281920D03*
X16250Y281920D03*
X22750Y281920D03*
X29250Y281920D03*
X35750Y281920D03*
D26*
X0Y312420D03*
D15*
X-60960Y247260D03*
X-60960Y230260D03*
X-45720Y230260D03*
X-45720Y247260D03*
X45720Y247260D03*
X45720Y230260D03*
X0Y247260D03*
X0Y230260D03*
X-30480Y230260D03*
X-30480Y247260D03*
X30480Y247260D03*
X30480Y230260D03*
D27*
X29210Y422940D03*
X29210Y394940D03*
X-29210Y422940D03*
X-29210Y394940D03*
D25*
X149670Y342920D03*
X156170Y342920D03*
X162670Y342920D03*
X169170Y342920D03*
X175670Y342920D03*
X182170Y342920D03*
X188670Y342920D03*
X195170Y342920D03*
X201670Y342920D03*
X208170Y342920D03*
X214670Y342920D03*
X221170Y342920D03*
X149670Y281920D03*
X156170Y281920D03*
X162670Y281920D03*
X169170Y281920D03*
X175670Y281920D03*
X182170Y281920D03*
X188670Y281920D03*
X195170Y281920D03*
X201670Y281920D03*
X208170Y281920D03*
X214670Y281920D03*
X221170Y281920D03*
D26*
X185420Y312420D03*
D15*
X124460Y247260D03*
X124460Y230260D03*
X139700Y230260D03*
X139700Y247260D03*
X231140Y247260D03*
X231140Y230260D03*
X185420Y247260D03*
X185420Y230260D03*
X154940Y230260D03*
X154940Y247260D03*
X215900Y247260D03*
X215900Y230260D03*
D27*
X214630Y422940D03*
X214630Y394940D03*
X156210Y422940D03*
X156210Y394940D03*
D17*
X-454660Y120680D03*
X-454660Y92680D03*
D24*
X-482600Y271780D03*
X-482600Y246380D03*
X-482600Y220980D03*
X-482600Y195580D03*
X-482600Y170180D03*
X-482600Y144780D03*
X-482600Y119380D03*
X-482600Y93980D03*
D15*
X-22860Y115180D03*
X-22860Y98180D03*
X-355600Y230260D03*
X-355600Y247260D03*
X-170180Y247260D03*
X-170180Y230260D03*
X15240Y247260D03*
X15240Y230260D03*
X200660Y247260D03*
X200660Y230260D03*
D28*
X-36790Y135858D03*
X-43290Y135858D03*
X-49790Y135858D03*
X-56290Y135858D03*
X-62790Y135858D03*
X-69290Y135858D03*
X-75790Y135858D03*
X-82290Y135858D03*
X-88790Y135858D03*
X-95290Y135858D03*
X-95290Y77502D03*
X-88790Y77502D03*
X-82290Y77502D03*
X-75790Y77502D03*
X-69290Y77502D03*
X-62790Y77502D03*
X-56290Y77502D03*
X-49790Y77502D03*
X-43290Y77502D03*
X-36790Y77502D03*
D15*
X7620Y115180D03*
X7620Y98180D03*
X-7620Y115180D03*
X-7620Y98180D03*
D29*
X-408940Y457200D02*
X-408940Y474980D01*
X-383540Y474980D02*
X-383540Y457200D01*
X-358140Y457200D02*
X-358140Y474980D01*
X-332740Y474980D02*
X-332740Y457200D01*
X-223520Y457200D02*
X-223520Y474980D01*
X-198120Y474980D02*
X-198120Y457200D01*
X-172720Y457200D02*
X-172720Y474980D01*
X-147320Y474980D02*
X-147320Y457200D01*
X-38100Y457200D02*
X-38100Y474980D01*
X-12700Y474980D02*
X-12700Y457200D01*
X12700Y457200D02*
X12700Y474980D01*
X38100Y474980D02*
X38100Y457200D01*
X147320Y457200D02*
X147320Y474980D01*
X172720Y474980D02*
X172720Y457200D01*
X198120Y457200D02*
X198120Y474980D01*
X223520Y474980D02*
X223520Y457200D01*
D15*
X-419100Y380120D03*
X-419100Y397120D03*
X-233680Y380120D03*
X-233680Y397120D03*
X137160Y380120D03*
X137160Y397120D03*
X-48260Y380120D03*
X-48260Y397120D03*
X-386080Y247260D03*
X-386080Y230260D03*
X-200660Y247260D03*
X-200660Y230260D03*
X-15240Y247260D03*
X-15240Y230260D03*
X170180Y247260D03*
X170180Y230260D03*
D30*
X-224015Y-16705D02*
X-224015Y-23295D01*
X-224015Y-16705D02*
X-222625Y-16705D01*
X-222625Y-23295D01*
X-224015Y-23295D01*
X-224015Y-21472D02*
X-222625Y-21472D01*
X-222625Y-19649D02*
X-224015Y-19649D01*
X-224015Y-17826D02*
X-222625Y-17826D01*
X-219015Y-16705D02*
X-219015Y-23295D01*
X-219015Y-16705D02*
X-217625Y-16705D01*
X-217625Y-23295D01*
X-219015Y-23295D01*
X-219015Y-21472D02*
X-217625Y-21472D01*
X-217625Y-19649D02*
X-219015Y-19649D01*
X-219015Y-17826D02*
X-217625Y-17826D01*
X-214015Y-16705D02*
X-214015Y-23295D01*
X-214015Y-16705D02*
X-212625Y-16705D01*
X-212625Y-23295D01*
X-214015Y-23295D01*
X-214015Y-21472D02*
X-212625Y-21472D01*
X-212625Y-19649D02*
X-214015Y-19649D01*
X-214015Y-17826D02*
X-212625Y-17826D01*
X-209015Y-16705D02*
X-209015Y-23295D01*
X-209015Y-16705D02*
X-207625Y-16705D01*
X-207625Y-23295D01*
X-209015Y-23295D01*
X-209015Y-21472D02*
X-207625Y-21472D01*
X-207625Y-19649D02*
X-209015Y-19649D01*
X-209015Y-17826D02*
X-207625Y-17826D01*
X-204015Y-16705D02*
X-204015Y-23295D01*
X-204015Y-16705D02*
X-202625Y-16705D01*
X-202625Y-23295D01*
X-204015Y-23295D01*
X-204015Y-21472D02*
X-202625Y-21472D01*
X-202625Y-19649D02*
X-204015Y-19649D01*
X-204015Y-17826D02*
X-202625Y-17826D01*
X-199015Y-16705D02*
X-199015Y-23295D01*
X-199015Y-16705D02*
X-197625Y-16705D01*
X-197625Y-23295D01*
X-199015Y-23295D01*
X-199015Y-21472D02*
X-197625Y-21472D01*
X-197625Y-19649D02*
X-199015Y-19649D01*
X-199015Y-17826D02*
X-197625Y-17826D01*
X-194115Y-11805D02*
X-187525Y-11805D01*
X-187525Y-13195D01*
X-194115Y-13195D01*
X-194115Y-11805D01*
X-194115Y-6805D02*
X-187525Y-6805D01*
X-187525Y-8195D01*
X-194115Y-8195D01*
X-194115Y-6805D01*
X-194115Y-1805D02*
X-187525Y-1805D01*
X-187525Y-3195D01*
X-194115Y-3195D01*
X-194115Y-1805D01*
X-194115Y3195D02*
X-187525Y3195D01*
X-187525Y1805D01*
X-194115Y1805D01*
X-194115Y3195D01*
X-194115Y8195D02*
X-187525Y8195D01*
X-187525Y6805D01*
X-194115Y6805D01*
X-194115Y8195D01*
X-194115Y13195D02*
X-187525Y13195D01*
X-187525Y11805D01*
X-194115Y11805D01*
X-194115Y13195D01*
X-197625Y16705D02*
X-197625Y23295D01*
X-197625Y16705D02*
X-199015Y16705D01*
X-199015Y23295D01*
X-197625Y23295D01*
X-197625Y18528D02*
X-199015Y18528D01*
X-199015Y20351D02*
X-197625Y20351D01*
X-197625Y22174D02*
X-199015Y22174D01*
X-202625Y23295D02*
X-202625Y16705D01*
X-204015Y16705D01*
X-204015Y23295D01*
X-202625Y23295D01*
X-202625Y18528D02*
X-204015Y18528D01*
X-204015Y20351D02*
X-202625Y20351D01*
X-202625Y22174D02*
X-204015Y22174D01*
X-207625Y23295D02*
X-207625Y16705D01*
X-209015Y16705D01*
X-209015Y23295D01*
X-207625Y23295D01*
X-207625Y18528D02*
X-209015Y18528D01*
X-209015Y20351D02*
X-207625Y20351D01*
X-207625Y22174D02*
X-209015Y22174D01*
X-212625Y23295D02*
X-212625Y16705D01*
X-214015Y16705D01*
X-214015Y23295D01*
X-212625Y23295D01*
X-212625Y18528D02*
X-214015Y18528D01*
X-214015Y20351D02*
X-212625Y20351D01*
X-212625Y22174D02*
X-214015Y22174D01*
X-217625Y23295D02*
X-217625Y16705D01*
X-219015Y16705D01*
X-219015Y23295D01*
X-217625Y23295D01*
X-217625Y18528D02*
X-219015Y18528D01*
X-219015Y20351D02*
X-217625Y20351D01*
X-217625Y22174D02*
X-219015Y22174D01*
X-222625Y23295D02*
X-222625Y16705D01*
X-224015Y16705D01*
X-224015Y23295D01*
X-222625Y23295D01*
X-222625Y18528D02*
X-224015Y18528D01*
X-224015Y20351D02*
X-222625Y20351D01*
X-222625Y22174D02*
X-224015Y22174D01*
X-227525Y11805D02*
X-234115Y11805D01*
X-234115Y13195D01*
X-227525Y13195D01*
X-227525Y11805D01*
X-227525Y6805D02*
X-234115Y6805D01*
X-234115Y8195D01*
X-227525Y8195D01*
X-227525Y6805D01*
X-227525Y1805D02*
X-234115Y1805D01*
X-234115Y3195D01*
X-227525Y3195D01*
X-227525Y1805D01*
X-227525Y-3195D02*
X-234115Y-3195D01*
X-234115Y-1805D01*
X-227525Y-1805D01*
X-227525Y-3195D01*
X-227525Y-8195D02*
X-234115Y-8195D01*
X-234115Y-6805D01*
X-227525Y-6805D01*
X-227525Y-8195D01*
X-227525Y-13195D02*
X-234115Y-13195D01*
X-234115Y-11805D01*
X-227525Y-11805D01*
X-227525Y-13195D01*
D31*
X-210820Y0D03*
D16*
X-157090Y45720D03*
X-140090Y45720D03*
X-202320Y-43180D03*
X-219320Y-43180D03*
D15*
X-275590Y8500D03*
X-275590Y-8500D03*
D14*
X-221820Y-60580D03*
X-199820Y-60580D03*
X-221820Y-76580D03*
X-199820Y-76580D03*
D15*
X-182880Y-60080D03*
X-182880Y-77080D03*
X-238760Y-77080D03*
X-238760Y-60080D03*
D16*
X-346320Y-274320D03*
X-329320Y-274320D03*
X-377580Y-274320D03*
X-394580Y-274320D03*
X-323460Y-82550D03*
X-306460Y-82550D03*
X-273930Y45720D03*
X-256930Y45720D03*
D32*
X-196820Y-137160D03*
X-224820Y-137160D03*
D16*
X-258200Y-30480D03*
X-275200Y-30480D03*
X-256930Y30480D03*
X-273930Y30480D03*
D32*
X-129510Y-19050D03*
X-157510Y-19050D03*
D16*
X-157090Y0D03*
X-140090Y0D03*
X-157090Y-68580D03*
X-140090Y-68580D03*
X-219320Y-160020D03*
X-202320Y-160020D03*
X-219320Y-99060D03*
X-202320Y-99060D03*
X-275200Y-60960D03*
X-258200Y-60960D03*
X-258200Y-76200D03*
X-275200Y-76200D03*
X-263770Y-129540D03*
X-246770Y-129540D03*
X-263770Y-160020D03*
X-246770Y-160020D03*
D33*
X-183490Y68279D03*
X-173990Y68279D03*
X-164490Y68279D03*
X-164490Y94281D03*
X-183490Y94281D03*
D15*
X-148590Y89780D03*
X-148590Y72780D03*
X-199390Y89780D03*
X-199390Y72780D03*
D34*
X-111506Y-207772D03*
X-134620Y-207772D03*
X-157734Y-207772D03*
D35*
X-134620Y-269750D03*
D16*
X16900Y2540D03*
X33900Y2540D03*
D17*
X-165100Y-153640D03*
X-165100Y-181640D03*
D19*
X232750Y-139700D03*
X211750Y-139700D03*
D16*
X195190Y-139700D03*
X178190Y-139700D03*
D36*
X250190Y-358140D02*
X250190Y-373380D01*
X224790Y-373380D02*
X224790Y-358140D01*
X199390Y-358140D02*
X199390Y-373380D01*
X146050Y-373380D02*
X146050Y-358140D01*
X120650Y-358140D02*
X120650Y-373380D01*
X95250Y-373380D02*
X95250Y-358140D01*
D15*
X297180Y-250580D03*
X297180Y-267580D03*
X297180Y-162950D03*
X297180Y-179950D03*
X278130Y-321700D03*
X278130Y-338700D03*
D16*
X148200Y-335280D03*
X131200Y-335280D03*
D37*
X338300Y-355600D03*
X398300Y-355600D03*
D16*
X195190Y-121920D03*
X178190Y-121920D03*
D19*
X232750Y-121920D03*
X211750Y-121920D03*
D38*
X318980Y-253860D03*
X318980Y-276860D03*
X318980Y-299860D03*
D39*
X376980Y-276860D03*
D38*
X318980Y-166230D03*
X318980Y-189230D03*
X318980Y-212230D03*
D39*
X376980Y-189230D03*
D15*
X297180Y-286140D03*
X297180Y-303140D03*
X297180Y-198510D03*
X297180Y-215510D03*
X180340Y-334890D03*
X180340Y-317890D03*
D16*
X131200Y-318770D03*
X148200Y-318770D03*
D17*
X431800Y-349220D03*
X431800Y-377220D03*
D40*
X-200773Y-244713D02*
X-200773Y-232807D01*
X-180867Y-232807D01*
X-180867Y-244713D01*
X-200773Y-244713D01*
X-200773Y-239390D02*
X-180867Y-239390D01*
X-180867Y-234067D02*
X-200773Y-234067D01*
X-240773Y-232807D02*
X-240773Y-244713D01*
X-240773Y-232807D02*
X-220867Y-232807D01*
X-220867Y-244713D01*
X-240773Y-244713D01*
X-240773Y-239390D02*
X-220867Y-239390D01*
X-220867Y-234067D02*
X-240773Y-234067D01*
D37*
X122400Y123190D03*
X182400Y123190D03*
D41*
X457200Y-259360D02*
X478536Y-259360D01*
X478536Y-294360D02*
X457200Y-294360D01*
X457200Y-171730D02*
X478536Y-171730D01*
X478536Y-206730D02*
X457200Y-206730D01*
D42*
X472440Y-421640D02*
X486664Y-421640D01*
X447040Y-428752D02*
X447040Y-414528D01*
X396240Y-414528D02*
X396240Y-428752D01*
X421640Y-428752D02*
X421640Y-414528D01*
X396240Y-439928D02*
X396240Y-454152D01*
X421640Y-454152D02*
X421640Y-439928D01*
D15*
X433070Y-248040D03*
X433070Y-265040D03*
D19*
X433070Y-305140D03*
X433070Y-284140D03*
D15*
X433070Y-160410D03*
X433070Y-177410D03*
X267970Y-404740D03*
X267970Y-387740D03*
X167640Y-404740D03*
X167640Y-387740D03*
D19*
X433070Y-217510D03*
X433070Y-196510D03*
X229530Y-402590D03*
X250530Y-402590D03*
X127930Y-402590D03*
X148930Y-402590D03*
D43*
X-287020Y413540D03*
X-287020Y353540D03*
X-101600Y413540D03*
X-101600Y353540D03*
X83820Y413540D03*
X83820Y353540D03*
X454660Y413540D03*
X454660Y353540D03*
D44*
X-341820Y-14000D03*
X-341820Y43000D03*
D45*
X-473320Y59000D03*
X-483320Y-72500D03*
D46*
X-444820Y-25900D03*
X-440820Y-14900D03*
X-444820Y-3900D03*
X-446820Y7100D03*
X-444820Y18100D03*
X-446820Y29100D03*
X-444820Y40100D03*
X-444820Y51100D03*
D16*
X-313300Y-335280D03*
X-296300Y-335280D03*
D24*
X-279400Y68580D03*
X-254000Y68580D03*
X-228600Y68580D03*
X-228600Y93980D03*
X-254000Y93980D03*
X-279400Y93980D03*
D16*
X-157090Y15240D03*
X-140090Y15240D03*
X-157090Y-38100D03*
X-140090Y-38100D03*
X-157090Y-53340D03*
X-140090Y-53340D03*
X-157090Y30480D03*
X-140090Y30480D03*
D47*
X-327660Y-130810D03*
D48*
X-302260Y-143510D03*
X-327660Y-156210D03*
X-302260Y-168910D03*
X-327660Y-181610D03*
X-302260Y-194310D03*
X-327660Y-207010D03*
X-302260Y-219710D03*
D49*
X-361950Y-95250D03*
X-361950Y-255270D03*
D48*
X-440690Y-241300D03*
X-440690Y-215900D03*
X-440690Y-109220D03*
X-440690Y-134620D03*
D50*
X-391160Y-118110D03*
X-391160Y-232410D03*
D16*
X-258200Y-45720D03*
X-275200Y-45720D03*
X-246770Y-99060D03*
X-263770Y-99060D03*
X-246770Y-114300D03*
X-263770Y-114300D03*
X-246770Y-144780D03*
X-263770Y-144780D03*
D24*
X66040Y-264160D03*
X66040Y-289560D03*
X66040Y-314960D03*
D15*
X297180Y-338700D03*
X297180Y-321700D03*
D24*
X-408940Y198120D03*
X-383540Y198120D03*
X-358140Y198120D03*
X-332740Y198120D03*
X-223520Y198120D03*
X-198120Y198120D03*
X-172720Y198120D03*
X-147320Y198120D03*
X-38100Y198120D03*
X-12700Y198120D03*
X12700Y198120D03*
X38100Y198120D03*
X147320Y198120D03*
X172720Y198120D03*
X198120Y198120D03*
X223520Y198120D03*
X154940Y-205740D03*
X154940Y-180340D03*
X154940Y-154940D03*
X154940Y-129540D03*
D16*
X249800Y-335280D03*
X232800Y-335280D03*
D51*
X-185420Y151795D03*
X-185420Y142845D03*
X-223520Y142845D03*
X-223520Y151795D03*
D52*
X205140Y-293370D03*
X257140Y-293370D03*
X205140Y-280670D03*
X205140Y-306070D03*
X205140Y-318770D03*
X257140Y-280670D03*
X257140Y-306070D03*
X257140Y-318770D03*
D15*
X-322580Y-8500D03*
X-322580Y8500D03*
D53*
X299720Y-362830D02*
X299720Y-377830D01*
D54*
X284720Y-399605D03*
X314720Y-399605D03*
X299720Y-399605D03*
D55*
X96520Y-434340D02*
X96520Y-456840D01*
X147320Y-456840D02*
X147320Y-434340D01*
D16*
X39760Y154940D03*
X56760Y154940D03*
X92320Y154940D03*
X75320Y154940D03*
D15*
X22860Y115180D03*
X22860Y98180D03*
D28*
X36790Y77502D03*
X43290Y77502D03*
X49790Y77502D03*
X56290Y77502D03*
X62790Y77502D03*
X69290Y77502D03*
X75790Y77502D03*
X82290Y77502D03*
X88790Y77502D03*
X95290Y77502D03*
X95290Y135858D03*
X88790Y135858D03*
X82290Y135858D03*
X75790Y135858D03*
X69290Y135858D03*
X62790Y135858D03*
X56290Y135858D03*
X49790Y135858D03*
X43290Y135858D03*
X36790Y135858D03*
D25*
X335090Y342920D03*
X341590Y342920D03*
X348090Y342920D03*
X354590Y342920D03*
X361090Y342920D03*
X367590Y342920D03*
X374090Y342920D03*
X380590Y342920D03*
X387090Y342920D03*
X393590Y342920D03*
X400090Y342920D03*
X406590Y342920D03*
X335090Y281920D03*
X341590Y281920D03*
X348090Y281920D03*
X354590Y281920D03*
X361090Y281920D03*
X367590Y281920D03*
X374090Y281920D03*
X380590Y281920D03*
X387090Y281920D03*
X393590Y281920D03*
X400090Y281920D03*
X406590Y281920D03*
D26*
X370840Y312420D03*
D15*
X309880Y247260D03*
X309880Y230260D03*
X325120Y230260D03*
X325120Y247260D03*
X416560Y247260D03*
X416560Y230260D03*
X370840Y247260D03*
X370840Y230260D03*
X340360Y230260D03*
X340360Y247260D03*
X401320Y247260D03*
X401320Y230260D03*
D27*
X400050Y422940D03*
X400050Y394940D03*
X341630Y422940D03*
X341630Y394940D03*
D15*
X386080Y247260D03*
X386080Y230260D03*
D29*
X332740Y457200D02*
X332740Y474980D01*
X358140Y474980D02*
X358140Y457200D01*
X383540Y457200D02*
X383540Y474980D01*
X408940Y474980D02*
X408940Y457200D01*
D15*
X322580Y380120D03*
X322580Y397120D03*
X355600Y247260D03*
X355600Y230260D03*
D43*
X269240Y413540D03*
X269240Y353540D03*
D24*
X332740Y198120D03*
X358140Y198120D03*
X383540Y198120D03*
X408940Y198120D03*
D15*
X297180Y-75320D03*
X297180Y-92320D03*
D38*
X318980Y-78600D03*
X318980Y-101600D03*
X318980Y-124600D03*
D39*
X376980Y-101600D03*
D15*
X297180Y-110880D03*
X297180Y-127880D03*
D41*
X457200Y-84100D02*
X478536Y-84100D01*
X478536Y-119100D02*
X457200Y-119100D01*
D15*
X433070Y-72780D03*
X433070Y-89780D03*
D19*
X433070Y-129880D03*
X433070Y-108880D03*
D36*
X375920Y27940D02*
X360680Y27940D01*
X360680Y2540D02*
X375920Y2540D01*
X375920Y-22860D02*
X360680Y-22860D01*
D16*
X376800Y48260D03*
X359800Y48260D03*
D19*
X405130Y8550D03*
X405130Y29550D03*
D15*
X340360Y-6740D03*
X340360Y-23740D03*
D52*
X257140Y-252730D03*
X205140Y-252730D03*
X257140Y-265430D03*
X257140Y-240030D03*
X257140Y-227330D03*
X205140Y-265430D03*
X205140Y-240030D03*
X205140Y-227330D03*
D16*
X171060Y-241300D03*
X154060Y-241300D03*
D15*
X279400Y-267580D03*
X279400Y-250580D03*
X340360Y11820D03*
X340360Y28820D03*
D40*
X224393Y133237D02*
X212487Y133237D01*
X212487Y153143D01*
X224393Y153143D01*
X224393Y133237D01*
X224393Y138560D02*
X212487Y138560D01*
X212487Y143883D02*
X224393Y143883D01*
X224393Y149206D02*
X212487Y149206D01*
X212487Y93237D02*
X224393Y93237D01*
X212487Y93237D02*
X212487Y113143D01*
X224393Y113143D01*
X224393Y93237D01*
X224393Y98560D02*
X212487Y98560D01*
X212487Y103883D02*
X224393Y103883D01*
X224393Y109206D02*
X212487Y109206D01*
D56*
X381870Y123190D03*
D57*
X308870Y145990D03*
X308870Y100390D03*
D16*
X300110Y168910D03*
X317110Y168910D03*
D58*
X278130Y101190D03*
X278130Y145190D03*
D24*
X-170180Y-279400D03*
X-195580Y-279400D03*
X-220980Y-279400D03*
X-246380Y-279400D03*
X-271780Y-279400D03*
X262890Y-104140D03*
X262890Y-129540D03*
X262890Y-154940D03*
X262890Y-180340D03*
X262890Y-205740D03*
D16*
X214240Y-335280D03*
X197240Y-335280D03*
X112640Y-335280D03*
X95640Y-335280D03*
D24*
X-12700Y25400D03*
X12700Y25400D03*
X38100Y25400D03*
X63500Y25400D03*
D15*
X-297180Y-384420D03*
X-297180Y-367420D03*
X-327660Y-402980D03*
X-327660Y-419980D03*
X-248920Y-384420D03*
X-248920Y-367420D03*
X-279400Y-419980D03*
X-279400Y-402980D03*
X-231140Y-419980D03*
X-231140Y-402980D03*
X-200660Y-384420D03*
X-200660Y-367420D03*
X-312420Y-367420D03*
X-312420Y-384420D03*
X-327660Y-367420D03*
X-327660Y-384420D03*
X-297180Y-419980D03*
X-297180Y-402980D03*
X-312420Y-419980D03*
X-312420Y-402980D03*
X-279400Y-367420D03*
X-279400Y-384420D03*
X-264160Y-367420D03*
X-264160Y-384420D03*
X-248920Y-419980D03*
X-248920Y-402980D03*
X-264160Y-419980D03*
X-264160Y-402980D03*
X-200660Y-419980D03*
X-200660Y-402980D03*
X-215900Y-419980D03*
X-215900Y-402980D03*
X-231140Y-367420D03*
X-231140Y-384420D03*
X-215900Y-367420D03*
X-215900Y-384420D03*
D24*
X63500Y50800D03*
X38100Y50800D03*
X12700Y50800D03*
X-12700Y50800D03*
D55*
X436880Y-22860D02*
X459380Y-22860D01*
X459380Y27940D02*
X436880Y27940D01*
D59*
X-348585Y99060D03*
X-357535Y99060D03*
D24*
X-457200Y297180D03*
X-482600Y297180D03*
D51*
X-147320Y151795D03*
X-147320Y142845D03*
D60*
X121920Y9020D03*
X121920Y57020D03*
D40*
X400447Y-266813D02*
X412353Y-266813D01*
X400447Y-266813D02*
X400447Y-246907D01*
X412353Y-246907D01*
X412353Y-266813D01*
X412353Y-261490D02*
X400447Y-261490D01*
X400447Y-256167D02*
X412353Y-256167D01*
X412353Y-250844D02*
X400447Y-250844D01*
X400447Y-306813D02*
X412353Y-306813D01*
X400447Y-306813D02*
X400447Y-286907D01*
X412353Y-286907D01*
X412353Y-306813D01*
X412353Y-301490D02*
X400447Y-301490D01*
X400447Y-296167D02*
X412353Y-296167D01*
X412353Y-290844D02*
X400447Y-290844D01*
X400447Y-179183D02*
X412353Y-179183D01*
X400447Y-179183D02*
X400447Y-159277D01*
X412353Y-159277D01*
X412353Y-179183D01*
X412353Y-173860D02*
X400447Y-173860D01*
X400447Y-168537D02*
X412353Y-168537D01*
X412353Y-163214D02*
X400447Y-163214D01*
X400447Y-219183D02*
X412353Y-219183D01*
X400447Y-219183D02*
X400447Y-199277D01*
X412353Y-199277D01*
X412353Y-219183D01*
X412353Y-213860D02*
X400447Y-213860D01*
X400447Y-208537D02*
X412353Y-208537D01*
X412353Y-203214D02*
X400447Y-203214D01*
X400447Y-91553D02*
X412353Y-91553D01*
X400447Y-91553D02*
X400447Y-71647D01*
X412353Y-71647D01*
X412353Y-91553D01*
X412353Y-86230D02*
X400447Y-86230D01*
X400447Y-80907D02*
X412353Y-80907D01*
X412353Y-75584D02*
X400447Y-75584D01*
X400447Y-131553D02*
X412353Y-131553D01*
X400447Y-131553D02*
X400447Y-111647D01*
X412353Y-111647D01*
X412353Y-131553D01*
X412353Y-126230D02*
X400447Y-126230D01*
X400447Y-120907D02*
X412353Y-120907D01*
X412353Y-115584D02*
X400447Y-115584D01*
D61*
X-425040Y-322460D03*
X-425040Y-317460D03*
D62*
X-425040Y-347210D03*
X-425040Y-339460D03*
D61*
X-425040Y-332460D03*
X-425040Y-327460D03*
X-425040Y-307460D03*
X-425040Y-312460D03*
D62*
X-425040Y-282710D03*
X-425040Y-290460D03*
D61*
X-425040Y-297460D03*
X-425040Y-302460D03*
D63*
X-436090Y-286060D03*
X-436090Y-343860D03*
D16*
X-377580Y-360680D03*
X-394580Y-360680D03*
X-377580Y-289560D03*
X-394580Y-289560D03*
X-377580Y-340360D03*
X-394580Y-340360D03*
D64*
X-467360Y469900D03*
D65*
X-467360Y491900D03*
X-467360Y447900D03*
X-489360Y469900D03*
X-445360Y469900D03*
X-451860Y485400D03*
X-451860Y454400D03*
X-482860Y485400D03*
X-482860Y454400D03*
D64*
X467360Y-464820D03*
D65*
X467360Y-442820D03*
X467360Y-486820D03*
X445360Y-464820D03*
X489360Y-464820D03*
X482860Y-449320D03*
X482860Y-480320D03*
X451860Y-449320D03*
X451860Y-480320D03*
D64*
X467360Y469900D03*
D65*
X467360Y491900D03*
X467360Y447900D03*
X445360Y469900D03*
X489360Y469900D03*
X482860Y485400D03*
X482860Y454400D03*
X451860Y485400D03*
X451860Y454400D03*
D64*
X-467360Y-464820D03*
D65*
X-467360Y-442820D03*
X-467360Y-486820D03*
X-489360Y-464820D03*
X-445360Y-464820D03*
X-451860Y-449320D03*
X-451860Y-480320D03*
X-482860Y-449320D03*
X-482860Y-480320D03*
D66*
X-368898Y-325391D02*
X-368898Y-323529D01*
X-368898Y-325391D02*
X-377260Y-325391D01*
X-377260Y-323529D01*
X-368898Y-323529D01*
X-368898Y-315891D02*
X-368898Y-314029D01*
X-368898Y-315891D02*
X-377260Y-315891D01*
X-377260Y-314029D01*
X-368898Y-314029D01*
X-368898Y-306391D02*
X-368898Y-304529D01*
X-368898Y-306391D02*
X-377260Y-306391D01*
X-377260Y-304529D01*
X-368898Y-304529D01*
X-394900Y-304529D02*
X-394900Y-306391D01*
X-403262Y-306391D01*
X-403262Y-304529D01*
X-394900Y-304529D01*
X-394900Y-323529D02*
X-394900Y-325391D01*
X-403262Y-325391D01*
X-403262Y-323529D01*
X-394900Y-323529D01*
X-403262Y-315891D02*
X-403262Y-314029D01*
X-394900Y-314029D01*
X-394900Y-315891D01*
X-403262Y-315891D01*
D15*
X-345440Y-306460D03*
X-345440Y-323460D03*
D67*
X-279240Y-327660D03*
X-259240Y-318160D03*
X-259240Y-337160D03*
D15*
X-231140Y-336160D03*
X-231140Y-319160D03*
D68*
X-284480Y255260D03*
D19*
X-294480Y222760D03*
X-274480Y222760D03*
D68*
X-99060Y255260D03*
D19*
X-109060Y222760D03*
X-89060Y222760D03*
D68*
X86360Y255260D03*
D19*
X76360Y222760D03*
X96360Y222760D03*
D68*
X271780Y255260D03*
D19*
X261780Y222760D03*
X281780Y222760D03*
D68*
X457200Y255260D03*
D19*
X447200Y222760D03*
X467200Y222760D03*
D55*
X459380Y97790D02*
X436880Y97790D01*
X436880Y148590D02*
X459380Y148590D01*
X198120Y-434340D02*
X198120Y-456840D01*
X248920Y-456840D02*
X248920Y-434340D01*
D41*
X457200Y-346990D02*
X478536Y-346990D01*
X478536Y-381990D02*
X457200Y-381990D01*
D55*
X299720Y-434340D02*
X299720Y-456840D01*
X350520Y-456840D02*
X350520Y-434340D01*
D15*
X-91440Y-204860D03*
X-91440Y-221860D03*
D69*
X-189820Y-198120D03*
X-231820Y-198120D03*
D16*
X-157090Y-83820D03*
X-140090Y-83820D03*
D15*
X-431800Y90560D03*
X-431800Y107560D03*
X-416560Y90560D03*
X-416560Y107560D03*
X-401320Y90560D03*
X-401320Y107560D03*
X-386080Y90560D03*
X-386080Y107560D03*
X-309880Y247260D03*
X-309880Y230260D03*
X-124460Y247260D03*
X-124460Y230260D03*
X60960Y247260D03*
X60960Y230260D03*
X246380Y247260D03*
X246380Y230260D03*
X431800Y247260D03*
X431800Y230260D03*
D24*
X-368300Y-397510D03*
X-393700Y-397510D03*
X-419100Y-397510D03*
X-444500Y-397510D03*
D59*
X-293370Y198120D03*
X-284480Y198120D03*
X-275590Y198120D03*
X-107950Y198120D03*
X-99060Y198120D03*
X-90170Y198120D03*
X77470Y198120D03*
X86360Y198120D03*
X95250Y198120D03*
X262890Y198120D03*
X271780Y198120D03*
X280670Y198120D03*
X448310Y198120D03*
X457200Y198120D03*
X466090Y198120D03*
D70*
X248950Y72390D03*
X220950Y72390D03*
D27*
X167640Y26640D03*
X167640Y54640D03*
D71*
X238730Y1870D02*
X238730Y-7610D01*
X236250Y-7610D01*
X236250Y1870D01*
X238730Y1870D01*
X238730Y-4732D02*
X236250Y-4732D01*
X236250Y-1854D02*
X238730Y-1854D01*
X238730Y1024D02*
X236250Y1024D01*
X251430Y1870D02*
X251430Y-7610D01*
X248950Y-7610D01*
X248950Y1870D01*
X251430Y1870D01*
X251430Y-4732D02*
X248950Y-4732D01*
X248950Y-1854D02*
X251430Y-1854D01*
X251430Y1024D02*
X248950Y1024D01*
X264130Y1870D02*
X264130Y-7610D01*
X261650Y-7610D01*
X261650Y1870D01*
X264130Y1870D01*
X264130Y-4732D02*
X261650Y-4732D01*
X261650Y-1854D02*
X264130Y-1854D01*
X264130Y1024D02*
X261650Y1024D01*
X276830Y1870D02*
X276830Y-7610D01*
X274350Y-7610D01*
X274350Y1870D01*
X276830Y1870D01*
X276830Y-4732D02*
X274350Y-4732D01*
X274350Y-1854D02*
X276830Y-1854D01*
X276830Y1024D02*
X274350Y1024D01*
X276830Y46390D02*
X276830Y55870D01*
X276830Y46390D02*
X274350Y46390D01*
X274350Y55870D01*
X276830Y55870D01*
X276830Y49268D02*
X274350Y49268D01*
X274350Y52146D02*
X276830Y52146D01*
X276830Y55024D02*
X274350Y55024D01*
X264130Y55870D02*
X264130Y46390D01*
X261650Y46390D01*
X261650Y55870D01*
X264130Y55870D01*
X264130Y49268D02*
X261650Y49268D01*
X261650Y52146D02*
X264130Y52146D01*
X264130Y55024D02*
X261650Y55024D01*
X251430Y55870D02*
X251430Y46390D01*
X248950Y46390D01*
X248950Y55870D01*
X251430Y55870D01*
X251430Y49268D02*
X248950Y49268D01*
X248950Y52146D02*
X251430Y52146D01*
X251430Y55024D02*
X248950Y55024D01*
X238730Y55870D02*
X238730Y46390D01*
X236250Y46390D01*
X236250Y55870D01*
X238730Y55870D01*
X238730Y49268D02*
X236250Y49268D01*
X236250Y52146D02*
X238730Y52146D01*
X238730Y55024D02*
X236250Y55024D01*
D72*
X246035Y18125D02*
X267045Y18125D01*
X246035Y18125D02*
X246035Y30135D01*
X267045Y30135D01*
X267045Y18125D01*
X267045Y29999D02*
X246035Y29999D01*
D73*
X213920Y-30480D03*
X156920Y-30480D03*
D15*
X266700Y-21980D03*
X266700Y-38980D03*
X312420Y-6740D03*
X312420Y-23740D03*
X297180Y-23740D03*
X297180Y-6740D03*
X281940Y-21980D03*
X281940Y-38980D03*
D16*
X290440Y69850D03*
X273440Y69850D03*
D15*
X236220Y-21980D03*
X236220Y-38980D03*
X251460Y-21980D03*
X251460Y-38980D03*
D40*
X200263Y30593D02*
X188357Y30593D01*
X200263Y30593D02*
X200263Y10687D01*
X188357Y10687D01*
X188357Y30593D01*
X188357Y16010D02*
X200263Y16010D01*
X200263Y21333D02*
X188357Y21333D01*
X188357Y26656D02*
X200263Y26656D01*
X200263Y70593D02*
X188357Y70593D01*
X200263Y70593D02*
X200263Y50687D01*
X188357Y50687D01*
X188357Y70593D01*
X188357Y56010D02*
X200263Y56010D01*
X200263Y61333D02*
X188357Y61333D01*
X188357Y66656D02*
X200263Y66656D01*
D24*
X186690Y-78740D03*
X212090Y-78740D03*
X237490Y-78740D03*
D74*
X-391160Y147320D03*
D40*
X239157Y113143D02*
X251063Y113143D01*
X251063Y93237D01*
X239157Y93237D01*
X239157Y113143D01*
X239157Y98560D02*
X251063Y98560D01*
X251063Y103883D02*
X239157Y103883D01*
X239157Y109206D02*
X251063Y109206D01*
X251063Y153143D02*
X239157Y153143D01*
X251063Y153143D02*
X251063Y133237D01*
X239157Y133237D01*
X239157Y153143D01*
X239157Y138560D02*
X251063Y138560D01*
X251063Y143883D02*
X239157Y143883D01*
X239157Y149206D02*
X251063Y149206D01*
D15*
X219710Y32140D03*
X219710Y49140D03*
M02*
